<svg width="232" height="322" viewBox="0 0 232 322" fill="none" xmlns="http://www.w3.org/2000/svg">
<path d="M71.8941 95.7441L71.6917 95.5303L89.9696 77.8052L99.1731 49.1649L89.9726 20.5345L65.8867 2.84033H36.114L12.0278 20.5345L2.82766 49.1649L12.0311 77.8052L30.3087 95.5303L30.1063 95.7441L11.7753 77.9676L11.7639 77.932L2.51978 49.1649L2.53442 49.119L11.7786 20.3515L11.8169 20.3234L36.0191 2.54413H65.9817L90.2222 20.3515L90.2368 20.3974L99.4806 49.1649L99.4663 49.2105L90.2254 77.9676L90.1987 77.9933L71.8941 95.7441Z" fill="#727272" stroke="#727272"/>
<path d="M65.861 109.997H35.9611L35.9233 109.905L30.0645 95.6945L30.3351 95.5804L36.1562 109.7H65.6659L71.487 95.5804L71.7577 95.6945L65.861 109.997Z" fill="#727272" stroke="#727272"/>
<path d="M51.0573 109.848H50.7643V67.4817L33.4839 58.9241L33.6128 58.6578L51.0573 67.2969V109.848Z" fill="#727272" stroke="#727272"/>
<path d="M50.7795 67.6509L49.4856 46.2331L49.778 46.2153L51.0417 67.1281L68.1953 55.9494L68.3538 56.1985L50.7795 67.6509Z" fill="#727272" stroke="#727272"/>
<path d="M13.7135 20.5922C13.7135 19.6577 12.9641 18.9 12.0399 18.9C11.1159 18.9 10.3666 19.6577 10.3666 20.5922C10.3666 21.5267 11.1159 22.2844 12.0399 22.2844C12.9641 22.2844 13.7135 21.5267 13.7135 20.5922Z" fill="#727272" stroke="#727272"/>
<path d="M4.34659 49.1649C4.34659 48.2304 3.59754 47.4727 2.6733 47.4727C1.74906 47.4727 1 48.2304 1 49.1649C1 50.0991 1.74906 50.8568 2.6733 50.8568C3.59754 50.8568 4.34659 50.0991 4.34659 49.1649Z" fill="#727272" stroke="#727272"/>
<path d="M13.7135 77.5136C13.7135 76.5791 12.9641 75.8214 12.0399 75.8214C11.1159 75.8214 10.3666 76.5791 10.3666 77.5136C10.3666 78.4481 11.1159 79.2058 12.0399 79.2058C12.9641 79.2058 13.7135 78.4481 13.7135 77.5136Z" fill="#727272" stroke="#727272"/>
<path d="M31.8732 95.6371C31.8732 94.7029 31.1242 93.9452 30.1997 93.9452C29.2757 93.9452 28.5264 94.7029 28.5264 95.6371C28.5264 96.5716 29.2757 97.3293 30.1997 97.3293C31.1242 97.3293 31.8732 96.5716 31.8732 95.6371Z" fill="#727272" stroke="#727272"/>
<path d="M73.2955 95.6371C73.2955 94.7029 72.5462 93.9452 71.6219 93.9452C70.6974 93.9452 69.9484 94.7029 69.9484 95.6371C69.9484 96.5716 70.6974 97.3293 71.6219 97.3293C72.5462 97.3293 73.2955 96.5716 73.2955 95.6371Z" fill="#727272" stroke="#727272"/>
<path d="M91.709 77.5136C91.709 76.5791 90.9596 75.8214 90.0354 75.8214C89.1112 75.8214 88.3618 76.5791 88.3618 77.5136C88.3618 78.4481 89.1112 79.2058 90.0354 79.2058C90.9596 79.2058 91.709 78.4481 91.709 77.5136Z" fill="#727272" stroke="#727272"/>
<path d="M101 49.165C101 48.2305 100.251 47.4728 99.3265 47.4728C98.4023 47.4728 97.653 48.2305 97.653 49.165C97.653 50.0992 98.4023 50.8569 99.3265 50.8569C100.251 50.8569 101 50.0992 101 49.165Z" fill="#727272" stroke="#727272"/>
<path d="M91.709 20.5922C91.709 19.6577 90.9596 18.9 90.0354 18.9C89.1112 18.9 88.3618 19.6577 88.3618 20.5922C88.3618 21.5267 89.1112 22.2844 90.0354 22.2844C90.9596 22.2844 91.709 21.5267 91.709 20.5922Z" fill="#727272" stroke="#727272"/>
<path d="M67.4369 2.69214C67.4369 1.75762 66.6875 0.999923 65.7633 0.999923C64.8388 0.999923 64.0897 1.75762 64.0897 2.69214C64.0897 3.62666 64.8388 4.38403 65.7633 4.38403C66.6875 4.38403 67.4369 3.62666 67.4369 2.69214Z" fill="#727272" stroke="#727272"/>
<path d="M37.7319 2.69214C37.7319 1.75762 36.9828 0.999923 36.0583 0.999923C35.1344 0.999923 34.385 1.75762 34.385 2.69214C34.385 3.62666 35.1344 4.38403 36.0583 4.38403C36.9828 4.38403 37.7319 3.62666 37.7319 2.69214Z" fill="#727272" stroke="#727272"/>
<path d="M37.7319 109.848C37.7319 108.914 36.9828 108.156 36.0583 108.156C35.1344 108.156 34.385 108.914 34.385 109.848C34.385 110.783 35.1344 111.541 36.0583 111.541C36.9828 111.541 37.7319 110.783 37.7319 109.848Z" fill="#727272" stroke="#727272"/>
<path d="M67.4369 109.848C67.4369 108.914 66.6875 108.156 65.7633 108.156C64.8388 108.156 64.0897 108.914 64.0897 109.848C64.0897 110.783 64.8388 111.541 65.7633 111.541C66.6875 111.541 67.4369 110.783 67.4369 109.848Z" fill="#727272" stroke="#727272"/>
<path d="M36.895 117.594C36.895 116.66 36.1456 115.902 35.2217 115.902C34.2974 115.902 33.5481 116.66 33.5481 117.594C33.5481 118.529 34.2974 119.286 35.2217 119.286C36.1456 119.286 36.895 118.529 36.895 117.594Z" fill="#727272" stroke="#727272"/>
<path d="M68.2733 117.594C68.2733 116.66 67.524 115.902 66.5997 115.902C65.6755 115.902 64.9261 116.66 64.9261 117.594C64.9261 118.529 65.6755 119.286 66.5997 119.286C67.524 119.286 68.2733 118.529 68.2733 117.594Z" fill="#727272" stroke="#727272"/>
<path d="M36.895 125.64C36.895 124.705 36.1456 123.948 35.2217 123.948C34.2974 123.948 33.5481 124.705 33.5481 125.64C33.5481 126.574 34.2974 127.332 35.2217 127.332C36.1456 127.332 36.895 126.574 36.895 125.64Z" fill="#727272" stroke="#727272"/>
<path d="M68.2733 125.64C68.2733 124.705 67.524 123.948 66.5997 123.948C65.6755 123.948 64.9261 124.705 64.9261 125.64C64.9261 126.574 65.6755 127.332 66.5997 127.332C67.524 127.332 68.2733 126.574 68.2733 125.64Z" fill="#727272" stroke="#727272"/>
<path d="M41.0789 133.386C41.0789 132.451 40.3296 131.694 39.4056 131.694C38.4814 131.694 37.7321 132.451 37.7321 133.386C37.7321 134.32 38.4814 135.078 39.4056 135.078C40.3296 135.078 41.0789 134.32 41.0789 133.386Z" fill="#727272" stroke="#727272"/>
<path d="M64.0896 133.386C64.0896 132.451 63.3405 131.694 62.4163 131.694C61.492 131.694 60.7427 132.451 60.7427 133.386C60.7427 134.32 61.492 135.078 62.4163 135.078C63.3405 135.078 64.0896 134.32 64.0896 133.386Z" fill="#727272" stroke="#727272"/>
<path d="M56.8933 139.308C56.8933 138.373 56.1442 137.616 55.2197 137.616C54.2954 137.616 53.5464 138.373 53.5464 139.308C53.5464 140.242 54.2954 141 55.2197 141C56.1442 141 56.8933 140.242 56.8933 139.308Z" fill="#727272" stroke="#727272"/>
<path d="M49.5047 139.308C49.5047 138.373 48.7554 137.616 47.8314 137.616C46.9072 137.616 46.1578 138.373 46.1578 139.308C46.1578 140.242 46.9072 141 47.8314 141C48.7554 141 49.5047 140.242 49.5047 139.308Z" fill="#727272" stroke="#727272"/>
<path d="M55.2722 139.456H47.786L39.3223 133.507L39.4892 133.264L47.8774 139.16H55.1682L62.3239 133.271L62.5088 133.5L55.2722 139.456Z" fill="#727272" stroke="#727272"/>
<path d="M51.7474 108.383C50.9471 107.916 49.9235 108.193 49.4613 109.002C48.9993 109.812 49.2738 110.846 50.0738 111.314C50.8741 111.781 51.898 111.504 52.36 110.694C52.8219 109.885 52.5477 108.85 51.7474 108.383Z" fill="#727272" stroke="#727272"/>
<path d="M51.7474 65.924C50.9471 65.4569 49.9235 65.7341 49.4613 66.5433C48.9993 67.3526 49.2738 68.3875 50.0738 68.8549C50.8741 69.322 51.898 69.0448 52.36 68.2355C52.8219 67.426 52.5477 66.3914 51.7474 65.924Z" fill="#727272" stroke="#727272"/>
<path d="M34.3852 57.3257C33.5849 56.8583 32.5613 57.1356 32.0993 57.9451C31.6374 58.7543 31.9113 59.7893 32.7119 60.2564C33.5122 60.7238 34.5358 60.4462 34.9977 59.637C35.4597 58.8278 35.1858 57.7929 34.3852 57.3257Z" fill="#727272" stroke="#727272"/>
<path d="M50.4686 44.7588C49.6679 44.2914 48.6447 44.5686 48.1827 45.3782C47.7205 46.1874 47.9946 47.2223 48.7953 47.6894C49.5956 48.1568 50.6188 47.8796 51.0811 47.0701C51.5434 46.2608 51.2689 45.2259 50.4686 44.7588Z" fill="#727272" stroke="#727272"/>
<path d="M69.9433 55.9521C69.8768 55.02 69.0756 54.3189 68.1537 54.3864C67.2318 54.4536 66.5387 55.2637 66.6052 56.1959C66.6717 57.128 67.4732 57.8292 68.3948 57.7616C69.317 57.6944 70.0101 56.8843 69.9433 55.9521Z" fill="#727272" stroke="#727272"/>
<path d="M202.988 188.28L202.783 188.066L221.344 170.341L230.688 141.7L221.347 113.07L196.89 95.3757H166.657L142.2 113.07L132.857 141.7L142.203 170.341L160.762 188.066L160.557 188.28L141.943 170.503L141.931 170.467L132.545 141.7L132.559 141.654L141.946 112.887L141.986 112.859L166.561 95.0795H196.985L221.6 112.887L221.615 112.933L231 141.7L230.985 141.746L221.603 170.503L221.576 170.529L202.988 188.28Z" fill="#727272" stroke="#727272"/>
<path d="M196.862 202.532H166.5L166.462 202.441L160.513 188.23L160.788 188.116L166.698 202.236H196.662L202.573 188.116L202.85 188.23L196.862 202.532Z" fill="#727272" stroke="#727272"/>
<path d="M186.107 231.992H178.505L169.911 226.043L170.081 225.8L178.598 231.696H186.002L193.268 225.807L193.456 226.036L186.107 231.992Z" fill="#727272" stroke="#727272"/>
<path d="M163.865 141.057L142.58 169.801L162.179 164.673L163.865 141.057ZM172.994 161.939L220.878 169.814L195.749 149.563L164.186 140.75L162.483 164.594L172.548 161.96L172.486 161.856L172.77 161.902L173.044 161.83L172.994 161.939ZM162.461 164.906L160.856 187.378L172.509 162.277L162.461 164.906ZM160.851 188.095L196.412 202.089L172.793 162.371L160.851 188.095ZM197.111 202.683L196.707 202.524L160.494 188.273L160.501 188.165L162.157 164.985L141.84 170.301L163.863 140.562L142.093 113.222L142.326 113.038L164.137 140.429L195.889 149.294L195.912 149.313L221.94 170.288L173.067 162.251L197.111 202.683Z" fill="#727272" stroke="#727272"/>
<path d="M173.037 162.08L202.492 187.785L195.71 149.657L173.037 162.08ZM202.935 188.563L172.654 162.141L172.641 162.108L163.954 140.709L132.707 141.849L132.696 141.554L164.151 140.406L164.191 140.502L172.854 161.843L195.93 149.198L195.965 149.402L202.935 188.563Z" fill="#727272" stroke="#727272"/>
<path d="M143.907 113.128C143.907 112.194 143.146 111.436 142.207 111.436C141.269 111.436 140.508 112.194 140.508 113.128C140.508 114.063 141.269 114.821 142.207 114.821C143.146 114.821 143.907 114.063 143.907 113.128Z" fill="#727272" stroke="#727272"/>
<path d="M134.399 141.703C134.399 140.768 133.638 140.011 132.699 140.011C131.761 140.011 131 140.768 131 141.703C131 142.637 131.761 143.395 132.699 143.395C133.638 143.395 134.399 142.637 134.399 141.703Z" fill="#727272" stroke="#727272"/>
<path d="M143.907 170.051C143.907 169.117 143.146 168.359 142.207 168.359C141.269 168.359 140.508 169.117 140.508 170.051C140.508 170.986 141.269 171.743 142.207 171.743C143.146 171.743 143.907 170.986 143.907 170.051Z" fill="#727272" stroke="#727272"/>
<path d="M162.353 188.173C162.353 187.239 161.592 186.481 160.653 186.481C159.715 186.481 158.954 187.239 158.954 188.173C158.954 189.108 159.715 189.865 160.653 189.865C161.592 189.865 162.353 189.108 162.353 188.173Z" fill="#727272" stroke="#727272"/>
<path d="M204.409 188.173C204.409 187.239 203.648 186.481 202.711 186.481C201.771 186.481 201.009 187.239 201.009 188.173C201.009 189.108 201.771 189.865 202.711 189.865C203.648 189.865 204.409 189.108 204.409 188.173Z" fill="#727272" stroke="#727272"/>
<path d="M223.107 170.051C223.107 169.117 222.348 168.359 221.408 168.359C220.471 168.359 219.71 169.117 219.71 170.051C219.71 170.986 220.471 171.743 221.408 171.743C222.348 171.743 223.107 170.986 223.107 170.051Z" fill="#727272" stroke="#727272"/>
<path d="M223.107 113.128C223.107 112.194 222.348 111.436 221.408 111.436C220.471 111.436 219.71 112.194 219.71 113.128C219.71 114.063 220.471 114.821 221.408 114.821C222.348 114.821 223.107 114.063 223.107 113.128Z" fill="#727272" stroke="#727272"/>
<path d="M198.464 95.2288C198.464 94.2942 197.702 93.5365 196.765 93.5365C195.825 93.5365 195.064 94.2942 195.064 95.2288C195.064 96.1633 195.825 96.9207 196.765 96.9207C197.702 96.9207 198.464 96.1633 198.464 95.2288Z" fill="#727272" stroke="#727272"/>
<path d="M168.298 95.2288C168.298 94.2942 167.537 93.5365 166.599 93.5365C165.66 93.5365 164.899 94.2942 164.899 95.2288C164.899 96.1633 165.66 96.9207 166.599 96.9207C167.537 96.9207 168.298 96.1633 168.298 95.2288Z" fill="#727272" stroke="#727272"/>
<path d="M168.298 202.385C168.298 201.451 167.537 200.693 166.599 200.693C165.66 200.693 164.899 201.451 164.899 202.385C164.899 203.32 165.66 204.077 166.599 204.077C167.537 204.077 168.298 203.32 168.298 202.385Z" fill="#727272" stroke="#727272"/>
<path d="M198.464 202.385C198.464 201.451 197.702 200.693 196.765 200.693C195.825 200.693 195.064 201.451 195.064 202.385C195.064 203.32 195.825 204.077 196.765 204.077C197.702 204.077 198.464 203.32 198.464 202.385Z" fill="#727272" stroke="#727272"/>
<path d="M167.447 210.131C167.447 209.196 166.686 208.438 165.747 208.438C164.809 208.438 164.048 209.196 164.048 210.131C164.048 211.065 164.809 211.823 165.747 211.823C166.686 211.823 167.447 211.065 167.447 210.131Z" fill="#727272" stroke="#727272"/>
<path d="M199.313 210.131C199.313 209.196 198.554 208.438 197.614 208.438C196.677 208.438 195.916 209.196 195.916 210.131C195.916 211.065 196.677 211.823 197.614 211.823C198.554 211.823 199.313 211.065 199.313 210.131Z" fill="#727272" stroke="#727272"/>
<path d="M167.447 218.177C167.447 217.242 166.686 216.484 165.747 216.484C164.809 216.484 164.048 217.242 164.048 218.177C164.048 219.111 164.809 219.868 165.747 219.868C166.686 219.868 167.447 219.111 167.447 218.177Z" fill="#727272" stroke="#727272"/>
<path d="M199.313 218.177C199.313 217.242 198.554 216.484 197.614 216.484C196.677 216.484 195.916 217.242 195.916 218.177C195.916 219.111 196.677 219.868 197.614 219.868C198.554 219.868 199.313 219.111 199.313 218.177Z" fill="#727272" stroke="#727272"/>
<path d="M171.696 225.922C171.696 224.987 170.935 224.229 169.997 224.229C169.058 224.229 168.298 224.987 168.298 225.922C168.298 226.856 169.058 227.614 169.997 227.614C170.935 227.614 171.696 226.856 171.696 225.922Z" fill="#727272" stroke="#727272"/>
<path d="M195.064 225.922C195.064 224.987 194.304 224.229 193.365 224.229C192.427 224.229 191.666 224.987 191.666 225.922C191.666 226.856 192.427 227.614 193.365 227.614C194.304 227.614 195.064 226.856 195.064 225.922Z" fill="#727272" stroke="#727272"/>
<path d="M187.753 231.845C187.753 230.91 186.992 230.153 186.054 230.153C185.116 230.153 184.355 230.91 184.355 231.845C184.355 232.779 185.116 233.537 186.054 233.537C186.992 233.537 187.753 232.779 187.753 231.845Z" fill="#727272" stroke="#727272"/>
<path d="M180.25 231.845C180.25 230.91 179.489 230.153 178.55 230.153C177.612 230.153 176.851 230.91 176.851 231.845C176.851 232.779 177.612 233.537 178.55 233.537C179.489 233.537 180.25 232.779 180.25 231.845Z" fill="#727272" stroke="#727272"/>
<path d="M165.751 140.558C165.751 139.623 164.99 138.866 164.052 138.866C163.113 138.866 162.353 139.623 162.353 140.558C162.353 141.492 163.113 142.25 164.052 142.25C164.99 142.25 165.751 141.492 165.751 140.558Z" fill="#727272" stroke="#727272"/>
<path d="M174.476 162.053C174.476 161.119 173.716 160.361 172.777 160.361C171.839 160.361 171.078 161.119 171.078 162.053C171.078 162.988 171.839 163.745 172.777 163.745C173.716 163.745 174.476 162.988 174.476 162.053Z" fill="#727272" stroke="#727272"/>
<path d="M197.514 149.427C197.514 148.493 196.756 147.735 195.816 147.735C194.878 147.735 194.117 148.493 194.117 149.427C194.117 150.362 194.878 151.119 195.816 151.119C196.756 151.119 197.514 150.362 197.514 149.427Z" fill="#727272" stroke="#727272"/>
<path d="M72.8953 275.281L72.694 275.067L90.9687 257.342L100.175 228.701L90.9716 200.071L66.8859 182.377H37.1153L13.0295 200.071L3.82913 228.701L13.0325 257.342L31.3102 275.067L31.1059 275.281L12.7741 257.504L12.7651 257.469L3.51965 228.701L3.53468 228.656L12.7771 199.888L12.8192 199.86L37.0191 182.081H66.9821L91.221 199.888L91.236 199.934L100.482 228.701L100.467 228.747L91.224 257.504L91.197 257.53L72.8953 275.281Z" fill="#727272" stroke="#727272"/>
<path d="M66.8608 289.533H36.9631L36.925 289.442L31.0662 275.231L31.3357 275.117L37.1564 289.237H66.6674L72.4882 275.117L72.7577 275.231L66.8608 289.533Z" fill="#727272" stroke="#727272"/>
<path d="M56.2732 318.993H48.7856L40.3225 313.044L40.4895 312.801L48.8764 318.697H56.1678L63.3243 312.808L63.5089 313.037L56.2732 318.993Z" fill="#727272" stroke="#727272"/>
<path d="M34.3667 228.057L13.4043 256.801L32.7059 251.672L34.3667 228.057ZM43.3581 248.939L90.5102 256.813L65.7631 236.563L34.6823 227.75L33.0038 251.593L42.9186 248.96L42.8567 248.855L43.134 248.902L43.4054 248.83L43.3581 248.939ZM32.9832 251.905L31.402 274.378L42.8803 249.276L32.9832 251.905ZM31.399 275.094L66.4209 289.089L43.1576 249.371L31.399 275.094ZM67.1053 289.682L66.71 289.523L31.048 275.272L31.0539 275.164L32.6852 251.985L12.6727 257.3L34.3637 227.561L12.9264 200.222L13.1536 200.038L34.6322 227.428L65.9017 236.293L65.9253 236.313L91.5575 257.288L43.426 249.251L67.1053 289.682Z" fill="#727272" stroke="#727272"/>
<path d="M43.3958 249.08L72.4059 274.785L65.7268 236.657L43.3958 249.08ZM72.8394 275.563L43.0208 249.141L43.0062 249.108L34.4523 227.709L3.67873 228.849L3.66992 228.554L34.6456 227.406L34.6837 227.502L43.2171 248.843L65.9436 236.198L65.9787 236.402L72.8394 275.563Z" fill="#727272" stroke="#727272"/>
<path d="M14.7143 200.129C14.7143 199.195 13.9644 198.437 13.0416 198.437C12.1159 198.437 11.3689 199.195 11.3689 200.129C11.3689 201.064 12.1159 201.821 13.0416 201.821C13.9644 201.821 14.7143 201.064 14.7143 200.129Z" fill="#727272" stroke="#727272"/>
<path d="M5.34835 228.702C5.34835 227.767 4.59841 227.01 3.67272 227.01C2.74995 227.01 2 227.767 2 228.702C2 229.636 2.74995 230.394 3.67272 230.394C4.59841 230.394 5.34835 229.636 5.34835 228.702Z" fill="#727272" stroke="#727272"/>
<path d="M14.7143 257.05C14.7143 256.116 13.9644 255.358 13.0416 255.358C12.1159 255.358 11.3689 256.116 11.3689 257.05C11.3689 257.985 12.1159 258.743 13.0416 258.743C13.9644 258.743 14.7143 257.985 14.7143 257.05Z" fill="#727272" stroke="#727272"/>
<path d="M32.8735 275.174C32.8735 274.24 32.1236 273.482 31.2008 273.482C30.2751 273.482 29.5281 274.24 29.5281 275.174C29.5281 276.109 30.2751 276.866 31.2008 276.866C32.1236 276.866 32.8735 276.109 32.8735 275.174Z" fill="#727272" stroke="#727272"/>
<path d="M74.2954 275.174C74.2954 274.24 73.5454 273.482 72.6227 273.482C71.697 273.482 70.95 274.24 70.95 275.174C70.95 276.109 71.697 276.866 72.6227 276.866C73.5454 276.866 74.2954 276.109 74.2954 275.174Z" fill="#727272" stroke="#727272"/>
<path d="M92.7082 257.051C92.7082 256.116 91.9571 255.359 91.0345 255.359C90.109 255.359 89.3608 256.116 89.3608 257.051C89.3608 257.985 90.109 258.743 91.0345 258.743C91.9571 258.743 92.7082 257.985 92.7082 257.051Z" fill="#727272" stroke="#727272"/>
<path d="M92.7082 200.13C92.7082 199.195 91.9571 198.438 91.0345 198.438C90.109 198.438 89.3608 199.195 89.3608 200.13C89.3608 201.064 90.109 201.822 91.0345 201.822C91.9571 201.822 92.7082 201.064 92.7082 200.13Z" fill="#727272" stroke="#727272"/>
<path d="M68.4362 182.229C68.4362 181.294 67.6863 180.537 66.7635 180.537C65.8378 180.537 65.0908 181.294 65.0908 182.229C65.0908 183.164 65.8378 183.921 66.7635 183.921C67.6863 183.921 68.4362 183.164 68.4362 182.229Z" fill="#727272" stroke="#727272"/>
<path d="M38.7321 182.229C38.7321 181.294 37.9822 180.537 37.0594 180.537C36.1337 180.537 35.3867 181.294 35.3867 182.229C35.3867 183.164 36.1337 183.921 37.0594 183.921C37.9822 183.921 38.7321 183.164 38.7321 182.229Z" fill="#727272" stroke="#727272"/>
<path d="M38.7321 289.385C38.7321 288.451 37.9822 287.693 37.0594 287.693C36.1337 287.693 35.3867 288.451 35.3867 289.385C35.3867 290.32 36.1337 291.077 37.0594 291.077C37.9822 291.077 38.7321 290.32 38.7321 289.385Z" fill="#727272" stroke="#727272"/>
<path d="M68.4362 289.385C68.4362 288.451 67.6863 287.693 66.7635 287.693C65.8378 287.693 65.0908 288.451 65.0908 289.385C65.0908 290.32 65.8378 291.077 66.7635 291.077C67.6863 291.077 68.4362 290.32 68.4362 289.385Z" fill="#727272" stroke="#727272"/>
<path d="M37.8978 297.131C37.8978 296.197 37.1478 295.439 36.2221 295.439C35.2994 295.439 34.5494 296.197 34.5494 297.131C34.5494 298.066 35.2994 298.823 36.2221 298.823C37.1478 298.823 37.8978 298.066 37.8978 297.131Z" fill="#727272" stroke="#727272"/>
<path d="M69.2741 297.131C69.2741 296.197 68.5242 295.439 67.6014 295.439C66.6757 295.439 65.9258 296.197 65.9258 297.131C65.9258 298.066 66.6757 298.823 67.6014 298.823C68.5242 298.823 69.2741 298.066 69.2741 297.131Z" fill="#727272" stroke="#727272"/>
<path d="M37.8978 305.177C37.8978 304.242 37.1478 303.485 36.2221 303.485C35.2994 303.485 34.5494 304.242 34.5494 305.177C34.5494 306.111 35.2994 306.869 36.2221 306.869C37.1478 306.869 37.8978 306.111 37.8978 305.177Z" fill="#727272" stroke="#727272"/>
<path d="M69.2741 305.177C69.2741 304.242 68.5242 303.485 67.6014 303.485C66.6757 303.485 65.9258 304.242 65.9258 305.177C65.9258 306.111 66.6757 306.869 67.6014 306.869C68.5242 306.869 69.2741 306.111 69.2741 305.177Z" fill="#727272" stroke="#727272"/>
<path d="M42.0806 312.923C42.0806 311.988 41.3307 311.23 40.405 311.23C39.4822 311.23 38.7323 311.988 38.7323 312.923C38.7323 313.857 39.4822 314.615 40.405 314.615C41.3307 314.615 42.0806 313.857 42.0806 312.923Z" fill="#727272" stroke="#727272"/>
<path d="M65.0911 312.923C65.0911 311.988 64.3412 311.23 63.4155 311.23C62.4927 311.23 61.7428 311.988 61.7428 312.923C61.7428 313.857 62.4927 314.615 63.4155 314.615C64.3412 314.615 65.0911 313.857 65.0911 312.923Z" fill="#727272" stroke="#727272"/>
<path d="M57.8938 318.845C57.8938 317.91 57.1439 317.153 56.2211 317.153C55.2955 317.153 54.5485 317.91 54.5485 318.845C54.5485 319.779 55.2955 320.537 56.2211 320.537C57.1439 320.537 57.8938 319.779 57.8938 318.845Z" fill="#727272" stroke="#727272"/>
<path d="M50.5055 318.845C50.5055 317.91 49.7555 317.153 48.8327 317.153C47.907 317.153 47.1571 317.91 47.1571 318.845C47.1571 319.779 47.907 320.537 48.8327 320.537C49.7555 320.537 50.5055 319.779 50.5055 318.845Z" fill="#727272" stroke="#727272"/>
<path d="M36.222 227.557C36.222 226.623 35.475 225.865 34.5493 225.865C33.6265 225.865 32.8766 226.623 32.8766 227.557C32.8766 228.492 33.6265 229.249 34.5493 229.249C35.475 229.249 36.222 228.492 36.222 227.557Z" fill="#727272" stroke="#727272"/>
<path d="M44.8168 249.053C44.8168 248.118 44.0669 247.361 43.1441 247.361C42.2184 247.361 41.4685 248.118 41.4685 249.053C41.4685 249.987 42.2184 250.745 43.1441 250.745C44.0669 250.745 44.8168 249.987 44.8168 249.053Z" fill="#727272" stroke="#727272"/>
<path d="M67.5076 236.427C67.5076 235.493 66.7577 234.736 65.8349 234.736C64.9092 234.736 64.1593 235.493 64.1593 236.427C64.1593 237.362 64.9092 238.12 65.8349 238.12C66.7577 238.12 67.5076 237.362 67.5076 236.427Z" fill="#727272" stroke="#727272"/>
<path d="M102 228.702C102 227.768 101.249 227.01 100.324 227.01C99.4019 227.01 98.6514 227.768 98.6514 228.702C98.6514 229.637 99.4019 230.394 100.324 230.394C101.249 230.394 102 229.637 102 228.702Z" fill="#727272"/>
<path d="M56.7778 196.532L66.2493 203.49L66.607 182.701L56.7778 196.532ZM37.4891 182.73L49.7771 205.875L56.369 196.599L37.4891 182.73ZM37.1735 182.764L34.7237 227.059L49.5877 206.143L37.1735 182.764ZM49.9334 206.165L65.6963 235.858L66.2433 203.852L56.6065 196.773L49.9334 206.165ZM66.5319 204.065L65.9848 235.948L80.8308 214.567L66.5319 204.065ZM81.0683 214.741L66.1712 236.201L99.9753 228.629L81.0683 214.741ZM65.8165 236.71L65.7533 236.597L65.6842 236.614V236.465L49.741 206.433L34.375 228.058L36.939 181.696L37.1705 182.13L56.5403 196.358L66.9166 181.759L66.5379 203.703L80.9992 214.324L90.9156 200.045L91.153 200.215L81.2366 214.498L100.673 228.776L65.9187 236.561L65.8165 236.71Z" fill="#727272" stroke="#727272"/>
</svg>
