<svg width="175" height="242" viewBox="0 0 175 242" fill="none" xmlns="http://www.w3.org/2000/svg">
<path d="M54.2475 72.1613L54.0955 72.0006L67.8238 58.6876L74.7364 37.1762L67.826 15.6723L49.7355 2.38241H27.3735L9.28275 15.6723L2.37261 37.1762L9.28517 58.6876L23.0133 72.0006L22.8612 72.1613L9.09309 58.8095L9.08451 58.7828L2.14136 37.1762L2.15236 37.1417L9.09551 15.5348L9.12433 15.5137L27.3022 2.15993H49.8067L68.0135 15.5348L68.0245 15.5693L74.9674 37.1762L74.9566 37.2104L68.0159 58.8095L67.9959 58.8289L54.2475 72.1613Z" fill="#727272" stroke="#727272"/>
<path d="M49.7164 82.866H27.259L27.2306 82.7974L22.8301 72.1238L23.0334 72.0382L27.4055 82.6435H49.5699L53.942 72.0382L54.1453 72.1238L49.7164 82.866Z" fill="#727272" stroke="#727272"/>
<path d="M38.5973 82.7546H38.3773V50.9336L25.3982 44.5061L25.495 44.3061L38.5973 50.7947V82.7546Z" fill="#727272" stroke="#727272"/>
<path d="M38.3888 51.0608L37.417 34.9742L37.6366 34.9608L38.5858 50.6681L51.4696 42.272L51.5887 42.4591L38.3888 51.0608Z" fill="#727272" stroke="#727272"/>
<path d="M10.549 15.7155C10.549 15.0136 9.98613 14.4445 9.29195 14.4445C8.59799 14.4445 8.03516 15.0136 8.03516 15.7155C8.03516 16.4174 8.59799 16.9865 9.29195 16.9865C9.98613 16.9865 10.549 16.4174 10.549 15.7155Z" fill="#727272" stroke="#727272"/>
<path d="M3.51358 37.1762C3.51358 36.4743 2.95098 35.9053 2.25679 35.9053C1.56261 35.9053 1 36.4743 1 37.1762C1 37.8779 1.56261 38.447 2.25679 38.447C2.95098 38.447 3.51358 37.8779 3.51358 37.1762Z" fill="#727272" stroke="#727272"/>
<path d="M10.549 58.4684C10.549 57.7665 9.98613 57.1974 9.29195 57.1974C8.59799 57.1974 8.03516 57.7665 8.03516 58.4684C8.03516 59.1703 8.59799 59.7394 9.29195 59.7394C9.98613 59.7394 10.549 59.1703 10.549 58.4684Z" fill="#727272" stroke="#727272"/>
<path d="M24.1886 72.0808C24.1886 71.3791 23.626 70.81 22.9316 70.81C22.2376 70.81 21.6748 71.3791 21.6748 72.0808C21.6748 72.7827 22.2376 73.3518 22.9316 73.3518C23.626 73.3518 24.1886 72.7827 24.1886 72.0808Z" fill="#727272" stroke="#727272"/>
<path d="M55.3004 72.0808C55.3004 71.3791 54.7376 70.81 54.0434 70.81C53.349 70.81 52.7864 71.3791 52.7864 72.0808C52.7864 72.7827 53.349 73.3518 54.0434 73.3518C54.7376 73.3518 55.3004 72.7827 55.3004 72.0808Z" fill="#727272" stroke="#727272"/>
<path d="M69.1302 58.4684C69.1302 57.7665 68.5674 57.1974 67.8732 57.1974C67.179 57.1974 66.6162 57.7665 66.6162 58.4684C66.6162 59.1703 67.179 59.7394 67.8732 59.7394C68.5674 59.7394 69.1302 59.1703 69.1302 58.4684Z" fill="#727272" stroke="#727272"/>
<path d="M76.1087 37.1762C76.1087 36.4743 75.5459 35.9053 74.8517 35.9053C74.1576 35.9053 73.5947 36.4743 73.5947 37.1762C73.5947 37.8779 74.1576 38.447 74.8517 38.447C75.5459 38.447 76.1087 37.8779 76.1087 37.1762Z" fill="#727272" stroke="#727272"/>
<path d="M69.1302 15.7155C69.1302 15.0136 68.5674 14.4445 67.8732 14.4445C67.179 14.4445 66.6162 15.0136 66.6162 15.7155C66.6162 16.4174 67.179 16.9865 67.8732 16.9865C68.5674 16.9865 69.1302 16.4174 69.1302 15.7155Z" fill="#727272" stroke="#727272"/>
<path d="M50.9 2.27099C50.9 1.56908 50.3372 0.999987 49.643 0.999987C48.9486 0.999987 48.386 1.56908 48.386 2.27099C48.386 2.97289 48.9486 3.54175 49.643 3.54175C50.3372 3.54175 50.9 2.97289 50.9 2.27099Z" fill="#727272" stroke="#727272"/>
<path d="M28.589 2.27099C28.589 1.56908 28.0264 0.999987 27.332 0.999987C26.638 0.999987 26.0752 1.56908 26.0752 2.27099C26.0752 2.97289 26.638 3.54175 27.332 3.54175C28.0264 3.54175 28.589 2.97289 28.589 2.27099Z" fill="#727272" stroke="#727272"/>
<path d="M28.589 82.7546C28.589 82.0527 28.0264 81.4839 27.332 81.4839C26.638 81.4839 26.0752 82.0527 26.0752 82.7546C26.0752 83.4565 26.638 84.0256 27.332 84.0256C28.0264 84.0256 28.589 83.4565 28.589 82.7546Z" fill="#727272" stroke="#727272"/>
<path d="M50.9 82.7546C50.9 82.0527 50.3372 81.4839 49.643 81.4839C48.9486 81.4839 48.386 82.0527 48.386 82.7546C48.386 83.4565 48.9486 84.0256 49.643 84.0256C50.3372 84.0256 50.9 83.4565 50.9 82.7546Z" fill="#727272" stroke="#727272"/>
<path d="M27.9603 88.5726C27.9603 87.8707 27.3975 87.3016 26.7035 87.3016C26.0094 87.3016 25.4465 87.8707 25.4465 88.5726C25.4465 89.2743 26.0094 89.8434 26.7035 89.8434C27.3975 89.8434 27.9603 89.2743 27.9603 88.5726Z" fill="#727272" stroke="#727272"/>
<path d="M51.5282 88.5726C51.5282 87.8707 50.9654 87.3016 50.2712 87.3016C49.577 87.3016 49.0142 87.8707 49.0142 88.5726C49.0142 89.2743 49.577 89.8434 50.2712 89.8434C50.9654 89.8434 51.5282 89.2743 51.5282 88.5726Z" fill="#727272" stroke="#727272"/>
<path d="M27.9603 94.6153C27.9603 93.9134 27.3975 93.3443 26.7035 93.3443C26.0094 93.3443 25.4465 93.9134 25.4465 94.6153C25.4465 95.317 26.0094 95.8861 26.7035 95.8861C27.3975 95.8861 27.9603 95.317 27.9603 94.6153Z" fill="#727272" stroke="#727272"/>
<path d="M51.5282 94.6153C51.5282 93.9134 50.9654 93.3443 50.2712 93.3443C49.577 93.3443 49.0142 93.9134 49.0142 94.6153C49.0142 95.317 49.577 95.8861 50.2712 95.8861C50.9654 95.8861 51.5282 95.317 51.5282 94.6153Z" fill="#727272" stroke="#727272"/>
<path d="M31.1027 100.433C31.1027 99.731 30.5398 99.1621 29.8459 99.1621C29.1517 99.1621 28.5889 99.731 28.5889 100.433C28.5889 101.135 29.1517 101.704 29.8459 101.704C30.5398 101.704 31.1027 101.135 31.1027 100.433Z" fill="#727272" stroke="#727272"/>
<path d="M48.3859 100.433C48.3859 99.731 47.8233 99.1621 47.1291 99.1621C46.4349 99.1621 45.8721 99.731 45.8721 100.433C45.8721 101.135 46.4349 101.704 47.1291 101.704C47.8233 101.704 48.3859 101.135 48.3859 100.433Z" fill="#727272" stroke="#727272"/>
<path d="M42.9808 104.881C42.9808 104.179 42.4182 103.61 41.7238 103.61C41.0296 103.61 40.467 104.179 40.467 104.881C40.467 105.583 41.0296 106.152 41.7238 106.152C42.4182 106.152 42.9808 105.583 42.9808 104.881Z" fill="#727272" stroke="#727272"/>
<path d="M37.4313 104.881C37.4313 104.179 36.8685 103.61 36.1745 103.61C35.4803 103.61 34.9175 104.179 34.9175 104.881C34.9175 105.583 35.4803 106.152 36.1745 106.152C36.8685 106.152 37.4313 105.583 37.4313 104.881Z" fill="#727272" stroke="#727272"/>
<path d="M41.763 104.992H36.1402L29.7832 100.524L29.9086 100.342L36.2088 104.77H41.6849L47.0594 100.347L47.1983 100.519L41.763 104.992Z" fill="#727272" stroke="#727272"/>
<path d="M39.1156 81.6538C38.5144 81.303 37.7457 81.5114 37.3985 82.119C37.0515 82.727 37.2577 83.5043 37.8585 83.8552C38.4597 84.206 39.2287 83.998 39.5756 83.39C39.9226 82.7822 39.7167 82.0051 39.1156 81.6538Z" fill="#727272" stroke="#727272"/>
<path d="M39.1156 49.7636C38.5144 49.4128 37.7457 49.621 37.3985 50.2288C37.0515 50.8366 37.2577 51.6139 37.8585 51.965C38.4597 52.3158 39.2287 52.1076 39.5756 51.4998C39.9226 50.8917 39.7167 50.1147 39.1156 49.7636Z" fill="#727272" stroke="#727272"/>
<path d="M26.0752 43.3055C25.474 42.9544 24.7053 43.1626 24.3583 43.7707C24.0113 44.3784 24.217 45.1558 24.8184 45.5066C25.4195 45.8577 26.1882 45.6492 26.5352 45.0414C26.8822 44.4336 26.6765 43.6563 26.0752 43.3055Z" fill="#727272" stroke="#727272"/>
<path d="M38.1551 33.8666C37.5537 33.5155 36.7852 33.7237 36.4382 34.3318C36.091 34.9396 36.297 35.7169 36.8983 36.0677C37.4994 36.4188 38.268 36.2106 38.6152 35.6025C38.9624 34.9947 38.7562 34.2174 38.1551 33.8666Z" fill="#727272" stroke="#727272"/>
<path d="M52.7825 42.2739C52.7325 41.5738 52.1308 41.0472 51.4383 41.0979C50.7459 41.1484 50.2253 41.7569 50.2753 42.457C50.3252 43.1571 50.9272 43.6837 51.6194 43.633C52.3121 43.5825 52.8326 42.974 52.7825 42.2739Z" fill="#727272" stroke="#727272"/>
<path d="M152.71 141.663L152.556 141.503L166.498 128.19L173.515 106.678L166.5 85.1744L148.13 71.8845H125.423L107.053 85.1744L100.036 106.678L107.055 128.19L120.995 141.503L120.841 141.663L106.86 128.312L106.852 128.285L99.8013 106.678L99.8122 106.644L106.863 85.0369L106.892 85.0158L125.35 71.662H148.202L166.69 85.0369L166.701 85.0714L173.75 106.678L173.739 106.712L166.692 128.312L166.672 128.331L152.71 141.663Z" fill="#727272" stroke="#727272"/>
<path d="M148.109 152.368H125.305L125.276 152.3L120.808 141.626L121.014 141.541L125.454 152.146H147.959L152.399 141.541L152.607 141.626L148.109 152.368Z" fill="#727272" stroke="#727272"/>
<path d="M140.032 174.495H134.322L127.867 170.027L127.995 169.844L134.392 174.272H139.952L145.41 169.849L145.551 170.022L140.032 174.495Z" fill="#727272" stroke="#727272"/>
<path d="M123.326 106.195L107.339 127.784L122.06 123.932L123.326 106.195ZM130.182 121.879L166.148 127.794L147.274 112.583L123.567 105.964L122.288 123.873L129.848 121.895L129.801 121.816L130.014 121.851L130.22 121.797L130.182 121.879ZM122.271 124.107L121.066 140.986L129.818 122.133L122.271 124.107ZM121.062 141.524L147.772 152.035L130.032 122.204L121.062 141.524ZM148.297 152.481L147.993 152.362L120.794 141.658L120.8 141.577L122.043 124.167L106.783 128.159L123.325 105.823L106.974 85.2884L107.148 85.1502L123.53 105.723L147.379 112.381L147.396 112.396L166.946 128.15L130.238 122.114L148.297 152.481Z" fill="#727272" stroke="#727272"/>
<path d="M130.215 121.985L152.338 141.292L147.244 112.654L130.215 121.985ZM152.671 141.876L129.927 122.031L129.917 122.006L123.392 105.934L99.9233 106.79L99.9148 106.568L123.541 105.706L123.57 105.778L130.077 121.807L147.409 112.31L147.436 112.463L152.671 141.876Z" fill="#727272" stroke="#727272"/>
<path d="M108.335 85.2181C108.335 84.5162 107.764 83.9472 107.059 83.9472C106.354 83.9472 105.783 84.5162 105.783 85.2181C105.783 85.9201 106.354 86.4891 107.059 86.4891C107.764 86.4891 108.335 85.9201 108.335 85.2181Z" fill="#727272" stroke="#727272"/>
<path d="M101.194 106.68C101.194 105.978 100.622 105.409 99.9173 105.409C99.2126 105.409 98.6411 105.978 98.6411 106.68C98.6411 107.382 99.2126 107.951 99.9173 107.951C100.622 107.951 101.194 107.382 101.194 106.68Z" fill="#727272" stroke="#727272"/>
<path d="M108.335 127.972C108.335 127.27 107.764 126.701 107.059 126.701C106.354 126.701 105.783 127.27 105.783 127.972C105.783 128.674 106.354 129.243 107.059 129.243C107.764 129.243 108.335 128.674 108.335 127.972Z" fill="#727272" stroke="#727272"/>
<path d="M122.19 141.583C122.19 140.882 121.619 140.312 120.914 140.312C120.209 140.312 119.637 140.882 119.637 141.583C119.637 142.285 120.209 142.854 120.914 142.854C121.619 142.854 122.19 142.285 122.19 141.583Z" fill="#727272" stroke="#727272"/>
<path d="M153.778 141.583C153.778 140.882 153.206 140.312 152.502 140.312C151.796 140.312 151.224 140.882 151.224 141.583C151.224 142.285 151.796 142.854 152.502 142.854C153.206 142.854 153.778 142.285 153.778 141.583Z" fill="#727272" stroke="#727272"/>
<path d="M167.821 127.972C167.821 127.27 167.252 126.701 166.546 126.701C165.842 126.701 165.27 127.27 165.27 127.972C165.27 128.674 165.842 129.243 166.546 129.243C167.252 129.243 167.821 128.674 167.821 127.972Z" fill="#727272" stroke="#727272"/>
<path d="M167.821 85.2181C167.821 84.5162 167.252 83.9472 166.546 83.9472C165.842 83.9472 165.27 84.5162 165.27 85.2181C165.27 85.9201 165.842 86.4891 166.546 86.4891C167.252 86.4891 167.821 85.9201 167.821 85.2181Z" fill="#727272" stroke="#727272"/>
<path d="M149.312 71.774C149.312 71.0721 148.74 70.503 148.037 70.503C147.331 70.503 146.759 71.0721 146.759 71.774C146.759 72.4759 147.331 73.0448 148.037 73.0448C148.74 73.0448 149.312 72.4759 149.312 71.774Z" fill="#727272" stroke="#727272"/>
<path d="M126.655 71.774C126.655 71.0721 126.084 70.503 125.379 70.503C124.674 70.503 124.103 71.0721 124.103 71.774C124.103 72.4759 124.674 73.0448 125.379 73.0448C126.084 73.0448 126.655 72.4759 126.655 71.774Z" fill="#727272" stroke="#727272"/>
<path d="M126.655 152.258C126.655 151.556 126.084 150.987 125.379 150.987C124.674 150.987 124.103 151.556 124.103 152.258C124.103 152.96 124.674 153.529 125.379 153.529C126.084 153.529 126.655 152.96 126.655 152.258Z" fill="#727272" stroke="#727272"/>
<path d="M149.312 152.258C149.312 151.556 148.74 150.987 148.037 150.987C147.331 150.987 146.759 151.556 146.759 152.258C146.759 152.96 147.331 153.529 148.037 153.529C148.74 153.529 149.312 152.96 149.312 152.258Z" fill="#727272" stroke="#727272"/>
<path d="M126.016 158.075C126.016 157.374 125.445 156.804 124.74 156.804C124.035 156.804 123.463 157.374 123.463 158.075C123.463 158.777 124.035 159.346 124.74 159.346C125.445 159.346 126.016 158.777 126.016 158.075Z" fill="#727272" stroke="#727272"/>
<path d="M149.95 158.075C149.95 157.374 149.38 156.804 148.674 156.804C147.97 156.804 147.398 157.374 147.398 158.075C147.398 158.777 147.97 159.346 148.674 159.346C149.38 159.346 149.95 158.777 149.95 158.075Z" fill="#727272" stroke="#727272"/>
<path d="M126.016 164.118C126.016 163.416 125.445 162.847 124.74 162.847C124.035 162.847 123.463 163.416 123.463 164.118C123.463 164.82 124.035 165.389 124.74 165.389C125.445 165.389 126.016 164.82 126.016 164.118Z" fill="#727272" stroke="#727272"/>
<path d="M149.95 164.118C149.95 163.416 149.38 162.847 148.674 162.847C147.97 162.847 147.398 163.416 147.398 164.118C147.398 164.82 147.97 165.389 148.674 165.389C149.38 165.389 149.95 164.82 149.95 164.118Z" fill="#727272" stroke="#727272"/>
<path d="M129.208 169.936C129.208 169.233 128.636 168.665 127.931 168.665C127.227 168.665 126.655 169.233 126.655 169.936C126.655 170.637 127.227 171.206 127.931 171.206C128.636 171.206 129.208 170.637 129.208 169.936Z" fill="#727272" stroke="#727272"/>
<path d="M146.759 169.936C146.759 169.233 146.188 168.665 145.483 168.665C144.778 168.665 144.207 169.233 144.207 169.936C144.207 170.637 144.778 171.206 145.483 171.206C146.188 171.206 146.759 170.637 146.759 169.936Z" fill="#727272" stroke="#727272"/>
<path d="M141.268 174.385C141.268 173.682 140.696 173.114 139.992 173.114C139.287 173.114 138.715 173.682 138.715 174.385C138.715 175.086 139.287 175.655 139.992 175.655C140.696 175.655 141.268 175.086 141.268 174.385Z" fill="#727272" stroke="#727272"/>
<path d="M135.632 174.385C135.632 173.682 135.061 173.114 134.356 173.114C133.651 173.114 133.08 173.682 133.08 174.385C133.08 175.086 133.651 175.655 134.356 175.655C135.061 175.655 135.632 175.086 135.632 174.385Z" fill="#727272" stroke="#727272"/>
<path d="M124.742 105.82C124.742 105.118 124.171 104.549 123.466 104.549C122.761 104.549 122.19 105.118 122.19 105.82C122.19 106.522 122.761 107.091 123.466 107.091C124.171 107.091 124.742 106.522 124.742 105.82Z" fill="#727272" stroke="#727272"/>
<path d="M131.296 121.965C131.296 121.263 130.724 120.694 130.019 120.694C129.315 120.694 128.743 121.263 128.743 121.965C128.743 122.667 129.315 123.236 130.019 123.236C130.724 123.236 131.296 122.667 131.296 121.965Z" fill="#727272" stroke="#727272"/>
<path d="M148.599 112.482C148.599 111.78 148.03 111.211 147.324 111.211C146.619 111.211 146.048 111.78 146.048 112.482C146.048 113.184 146.619 113.753 147.324 113.753C148.03 113.753 148.599 113.184 148.599 112.482Z" fill="#727272" stroke="#727272"/>
<path d="M54.9998 207.009L54.8485 206.848L68.5744 193.535L75.4892 172.023L68.5766 150.52L50.4862 137.23H28.1258L10.0353 150.52L3.12502 172.023L10.0376 193.535L23.7657 206.848L23.6122 207.009L9.84351 193.657L9.83674 193.63L2.89258 172.023L2.90386 171.989L9.84576 150.382L9.87736 150.361L28.0536 137.007H50.5584L68.7639 150.382L68.7752 150.417L75.7194 172.023L75.7081 172.058L68.7662 193.657L68.7459 193.676L54.9998 207.009Z" fill="#727272" stroke="#727272"/>
<path d="M50.4671 217.714H28.0114L27.9828 217.645L23.5823 206.971L23.7847 206.886L28.1566 217.491H50.3219L54.6938 206.886L54.8962 206.971L50.4671 217.714Z" fill="#727272" stroke="#727272"/>
<path d="M42.515 239.84H36.8912L30.5347 235.372L30.6601 235.19L36.9594 239.618H42.4358L47.811 235.195L47.9496 235.367L42.515 239.84Z" fill="#727272" stroke="#727272"/>
<path d="M26.0611 171.54L10.3166 193.129L24.8137 189.277L26.0611 171.54ZM32.8145 187.224L68.2298 193.138L49.6425 177.928L26.2982 171.309L25.0375 189.217L32.4844 187.239L32.4378 187.161L32.6461 187.196L32.85 187.142L32.8145 187.224ZM25.022 189.452L23.8344 206.331L32.4556 187.477L25.022 189.452ZM23.8322 206.869L50.1367 217.38L32.6638 187.548L23.8322 206.869ZM50.6507 217.826L50.3538 217.706L23.5685 207.002L23.5729 206.921L24.7982 189.511L9.76709 193.504L26.0589 171.167L9.95763 150.633L10.1282 150.495L26.2605 171.068L49.7467 177.726L49.7644 177.741L69.0164 193.495L32.8655 187.458L50.6507 217.826Z" fill="#727272" stroke="#727272"/>
<path d="M32.843 187.33L54.632 206.637L49.6155 177.999L32.843 187.33ZM54.9577 207.221L32.5613 187.375L32.5503 187.351L26.1256 171.279L3.01199 172.135L3.00537 171.913L26.2708 171.05L26.2994 171.123L32.7087 187.151L49.7783 177.654L49.8047 177.807L54.9577 207.221Z" fill="#727272" stroke="#727272"/>
<path d="M11.3008 150.563C11.3008 149.861 10.7375 149.292 10.0444 149.292C9.34914 149.292 8.78809 149.861 8.78809 150.563C8.78809 151.265 9.34914 151.834 10.0444 151.834C10.7375 151.834 11.3008 151.265 11.3008 150.563Z" fill="#727272" stroke="#727272"/>
<path d="M4.26612 172.024C4.26612 171.322 3.70286 170.753 3.00758 170.753C2.3145 170.753 1.75122 171.322 1.75122 172.024C1.75122 172.726 2.3145 173.295 3.00758 173.295C3.70286 173.295 4.26612 172.726 4.26612 172.024Z" fill="#727272" stroke="#727272"/>
<path d="M11.3008 193.316C11.3008 192.615 10.7375 192.045 10.0444 192.045C9.34914 192.045 8.78809 192.615 8.78809 193.316C8.78809 194.018 9.34914 194.587 10.0444 194.587C10.7375 194.587 11.3008 194.018 11.3008 193.316Z" fill="#727272" stroke="#727272"/>
<path d="M24.9399 206.928C24.9399 206.227 24.3767 205.658 23.6836 205.658C22.9883 205.658 22.4272 206.227 22.4272 206.928C22.4272 207.63 22.9883 208.199 23.6836 208.199C24.3767 208.199 24.9399 207.63 24.9399 206.928Z" fill="#727272" stroke="#727272"/>
<path d="M56.051 206.928C56.051 206.227 55.4878 205.658 54.7947 205.658C54.0994 205.658 53.5383 206.227 53.5383 206.928C53.5383 207.63 54.0994 208.199 54.7947 208.199C55.4878 208.199 56.051 207.63 56.051 206.928Z" fill="#727272" stroke="#727272"/>
<path d="M69.8808 193.317C69.8808 192.615 69.3167 192.046 68.6238 192.046C67.9286 192.046 67.3667 192.615 67.3667 193.317C67.3667 194.018 67.9286 194.588 68.6238 194.588C69.3167 194.588 69.8808 194.018 69.8808 193.317Z" fill="#727272" stroke="#727272"/>
<path d="M69.8808 150.564C69.8808 149.862 69.3167 149.293 68.6238 149.293C67.9286 149.293 67.3667 149.862 67.3667 150.564C67.3667 151.266 67.9286 151.835 68.6238 151.835C69.3167 151.835 69.8808 151.266 69.8808 150.564Z" fill="#727272" stroke="#727272"/>
<path d="M51.6504 137.119C51.6504 136.417 51.0871 135.848 50.3941 135.848C49.6988 135.848 49.1377 136.417 49.1377 137.119C49.1377 137.821 49.6988 138.389 50.3941 138.389C51.0871 138.389 51.6504 137.821 51.6504 137.119Z" fill="#727272" stroke="#727272"/>
<path d="M29.3403 137.119C29.3403 136.417 28.7771 135.848 28.084 135.848C27.3887 135.848 26.8276 136.417 26.8276 137.119C26.8276 137.821 27.3887 138.389 28.084 138.389C28.7771 138.389 29.3403 137.821 29.3403 137.119Z" fill="#727272" stroke="#727272"/>
<path d="M29.3403 217.602C29.3403 216.9 28.7771 216.332 28.084 216.332C27.3887 216.332 26.8276 216.9 26.8276 217.602C26.8276 218.304 27.3887 218.873 28.084 218.873C28.7771 218.873 29.3403 218.304 29.3403 217.602Z" fill="#727272" stroke="#727272"/>
<path d="M51.6504 217.602C51.6504 216.9 51.0871 216.332 50.3941 216.332C49.6988 216.332 49.1377 216.9 49.1377 217.602C49.1377 218.304 49.6988 218.873 50.3941 218.873C51.0871 218.873 51.6504 218.304 51.6504 217.602Z" fill="#727272" stroke="#727272"/>
<path d="M28.7134 223.421C28.7134 222.719 28.1501 222.15 27.4548 222.15C26.7617 222.15 26.1985 222.719 26.1985 223.421C26.1985 224.122 26.7617 224.691 27.4548 224.691C28.1501 224.691 28.7134 224.122 28.7134 223.421Z" fill="#727272" stroke="#727272"/>
<path d="M52.2798 223.421C52.2798 222.719 51.7165 222.15 51.0234 222.15C50.3282 222.15 49.7649 222.719 49.7649 223.421C49.7649 224.122 50.3282 224.691 51.0234 224.691C51.7165 224.691 52.2798 224.122 52.2798 223.421Z" fill="#727272" stroke="#727272"/>
<path d="M28.7134 229.463C28.7134 228.761 28.1501 228.192 27.4548 228.192C26.7617 228.192 26.1985 228.761 26.1985 229.463C26.1985 230.165 26.7617 230.734 27.4548 230.734C28.1501 230.734 28.7134 230.165 28.7134 229.463Z" fill="#727272" stroke="#727272"/>
<path d="M52.2798 229.463C52.2798 228.761 51.7165 228.192 51.0234 228.192C50.3282 228.192 49.7649 228.761 49.7649 229.463C49.7649 230.165 50.3282 230.734 51.0234 230.734C51.7165 230.734 52.2798 230.165 52.2798 229.463Z" fill="#727272" stroke="#727272"/>
<path d="M31.8552 235.281C31.8552 234.579 31.2919 234.01 30.5967 234.01C29.9036 234.01 29.3403 234.579 29.3403 235.281C29.3403 235.983 29.9036 236.552 30.5967 236.552C31.2919 236.552 31.8552 235.983 31.8552 235.281Z" fill="#727272" stroke="#727272"/>
<path d="M49.1379 235.281C49.1379 234.579 48.5747 234.01 47.8794 234.01C47.1863 234.01 46.623 234.579 46.623 235.281C46.623 235.983 47.1863 236.552 47.8794 236.552C48.5747 236.552 49.1379 235.983 49.1379 235.281Z" fill="#727272" stroke="#727272"/>
<path d="M43.7324 239.729C43.7324 239.027 43.1691 238.458 42.4761 238.458C41.7808 238.458 41.2197 239.027 41.2197 239.729C41.2197 240.431 41.7808 241 42.4761 241C43.1691 241 43.7324 240.431 43.7324 239.729Z" fill="#727272" stroke="#727272"/>
<path d="M38.1831 239.729C38.1831 239.027 37.6198 238.458 36.9268 238.458C36.2315 238.458 35.6682 239.027 35.6682 239.729C35.6682 240.431 36.2315 241 36.9268 241C37.6198 241 38.1831 240.431 38.1831 239.729Z" fill="#727272" stroke="#727272"/>
<path d="M27.4551 171.164C27.4551 170.462 26.894 169.893 26.1987 169.893C25.5057 169.893 24.9424 170.462 24.9424 171.164C24.9424 171.866 25.5057 172.435 26.1987 172.435C26.894 172.435 27.4551 171.866 27.4551 171.164Z" fill="#727272" stroke="#727272"/>
<path d="M33.9104 187.309C33.9104 186.607 33.3471 186.039 32.654 186.039C31.9588 186.039 31.3955 186.607 31.3955 187.309C31.3955 188.011 31.9588 188.58 32.654 188.58C33.3471 188.58 33.9104 188.011 33.9104 187.309Z" fill="#727272" stroke="#727272"/>
<path d="M50.9529 177.826C50.9529 177.125 50.3896 176.556 49.6965 176.556C49.0013 176.556 48.438 177.125 48.438 177.826C48.438 178.528 49.0013 179.097 49.6965 179.097C50.3896 179.097 50.9529 178.528 50.9529 177.826Z" fill="#727272" stroke="#727272"/>
<path d="M76.8598 172.024C76.8598 171.323 76.2961 170.753 75.6011 170.753C74.9084 170.753 74.3447 171.323 74.3447 172.024C74.3447 172.726 74.9084 173.295 75.6011 173.295C76.2961 173.295 76.8598 172.726 76.8598 172.024Z" fill="#727272"/>
<path d="M42.8941 147.862L50.008 153.088L50.2767 137.474L42.8941 147.862ZM28.4066 137.496L37.6359 154.879L42.587 147.912L28.4066 137.496ZM28.1695 137.52L26.3295 170.79L37.4937 155.08L28.1695 137.52ZM37.7534 155.097L49.5926 177.399L50.0035 153.36L42.7654 148.043L37.7534 155.097ZM50.2202 153.519L49.8093 177.467L60.96 161.407L50.2202 153.519ZM61.1384 161.538L49.9493 177.657L75.3391 171.97L61.1384 161.538ZM49.6829 178.039L49.6355 177.954L49.5836 177.967V177.855L37.6089 155.298L26.0676 171.54L27.9934 136.719L28.1673 137.045L42.7157 147.731L50.5092 136.766L50.2248 153.248L61.0864 161.225L68.5345 150.5L68.7129 150.628L61.2648 161.356L75.8629 172.08L49.7597 177.927L49.6829 178.039Z" fill="#727272" stroke="#727272"/>
</svg>
