<svg width="520" height="268" viewBox="0 0 520 268" fill="none" xmlns="http://www.w3.org/2000/svg">
<g clip-path="url(#clip0_144_105)">
<path d="M235.216 77.3684C255.624 77.3684 272.169 60.9978 272.169 40.8038C272.169 20.6098 255.624 4.23926 235.216 4.23926C214.807 4.23926 198.263 20.6098 198.263 40.8038C198.263 60.9978 214.807 77.3684 235.216 77.3684Z" fill="#1B1B25"/>
<path d="M230.992 74.1889C251.401 74.1889 267.945 57.5812 267.945 37.0945C267.945 16.6078 251.401 0 230.992 0C210.583 0 194.04 16.6078 194.04 37.0945C194.04 57.5812 210.583 74.1889 230.992 74.1889Z" fill="#F3CF48"/>
<path d="M230.993 66.7701C225.146 66.7701 219.43 65.0295 214.569 61.7684C209.707 58.5073 205.918 53.8723 203.681 48.4494C201.443 43.0265 200.858 37.0594 201.999 31.3027C203.141 25.5461 205.957 20.2584 210.091 16.1085C214.226 11.9585 219.495 9.13269 225.229 7.98838C230.965 6.84407 236.909 7.43266 242.311 9.67973C247.713 11.9267 252.329 15.7314 255.577 20.6123C258.824 25.4933 260.557 31.2314 260.556 37.101C260.547 44.9682 257.43 52.5107 251.887 58.0731C246.345 63.6354 238.83 66.7633 230.993 66.7701ZM230.993 9.34857C225.525 9.34857 220.18 10.9763 215.634 14.0257C211.087 17.0752 207.543 21.4095 205.451 26.4806C203.358 31.5516 202.811 37.1317 203.878 42.5151C204.944 47.8986 207.578 52.8435 211.444 56.7248C215.31 60.606 220.237 63.2492 225.6 64.32C230.962 65.3908 236.521 64.8412 241.573 62.7407C246.625 60.6402 250.943 57.0831 253.98 52.5193C257.018 47.9555 258.639 42.5898 258.639 37.101C258.631 29.7431 255.715 22.6892 250.533 17.4864C245.35 12.2837 238.323 9.35707 230.993 9.34857Z" fill="#FCF0E3"/>
<path d="M229.311 49.8165C227.498 49.5928 225.723 49.1315 224.029 48.4447C222.369 47.7793 220.805 46.8949 219.379 45.8148L222.665 41.0102C223.718 41.8228 224.836 42.5481 226.007 43.1786C227.109 43.7717 228.293 44.1978 229.519 44.4429V37.7291C228.164 37.3611 226.835 36.8963 225.546 36.3383C224.511 35.9004 223.558 35.2889 222.728 34.5303C221.992 33.8421 221.416 33.0004 221.041 32.0647C220.644 31.0239 220.451 29.9164 220.472 28.8026V28.7078C220.458 27.6092 220.674 26.5198 221.104 25.509C221.518 24.562 222.128 23.7133 222.892 23.0182C223.714 22.2852 224.663 21.707 225.691 21.3113C226.854 20.8726 228.073 20.5961 229.311 20.4894V18.0176H233.69V20.5463C236.513 20.9266 239.2 21.9923 241.518 23.6503L238.7 28.5751C237.874 28.0254 237.015 27.5272 236.129 27.0831C235.284 26.6565 234.397 26.3237 233.481 26.0906V32.4504C236.678 33.3227 238.995 34.4607 240.431 35.8641C241.164 36.6019 241.735 37.4843 242.109 38.4552C242.481 39.4261 242.649 40.4642 242.598 41.5033V41.5918C242.622 42.6913 242.406 43.7828 241.966 44.7906C241.54 45.7352 240.922 46.5812 240.153 47.2751C239.329 48.0112 238.382 48.5955 237.354 49.001C236.183 49.4699 234.952 49.768 233.696 49.886V54.0522H229.317L229.311 49.8165ZM229.519 25.7239C228.706 25.782 227.933 26.1013 227.315 26.6342C227.088 26.8545 226.909 27.1192 226.789 27.4119C226.67 27.7046 226.613 28.0187 226.62 28.3348V28.4233C226.61 29.0301 226.819 29.6203 227.207 30.086C227.862 30.7057 228.654 31.1607 229.519 31.4136V25.7239ZM233.481 44.6326C235.469 44.3249 236.466 43.4272 236.47 41.9395V41.8573C236.495 41.202 236.269 40.5619 235.838 40.0682C235.164 39.4519 234.357 38.9978 233.481 38.7406V44.6326Z" fill="#1B1B25"/>
<path d="M235.216 77.3684C255.624 77.3684 272.169 60.9978 272.169 40.8038C272.169 20.6098 255.624 4.23926 235.216 4.23926C214.807 4.23926 198.263 20.6098 198.263 40.8038C198.263 60.9978 214.807 77.3684 235.216 77.3684Z" fill="#1B1B25"/>
<path d="M230.992 74.1889C251.401 74.1889 267.945 57.5812 267.945 37.0945C267.945 16.6078 251.401 0 230.992 0C210.583 0 194.04 16.6078 194.04 37.0945C194.04 57.5812 210.583 74.1889 230.992 74.1889Z" fill="#FDB718"/>
<path d="M230.993 66.7701C225.146 66.7701 219.43 65.0295 214.569 61.7684C209.707 58.5073 205.918 53.8723 203.681 48.4494C201.443 43.0265 200.858 37.0594 201.999 31.3027C203.141 25.5461 205.957 20.2584 210.091 16.1085C214.226 11.9585 219.495 9.13269 225.229 7.98838C230.965 6.84407 236.909 7.43266 242.311 9.67973C247.713 11.9267 252.329 15.7314 255.577 20.6123C258.824 25.4933 260.557 31.2314 260.556 37.101C260.547 44.9682 257.43 52.5107 251.887 58.0731C246.345 63.6354 238.83 66.7633 230.993 66.7701ZM230.993 9.34857C225.525 9.34857 220.18 10.9763 215.634 14.0257C211.087 17.0752 207.543 21.4095 205.451 26.4806C203.358 31.5516 202.811 37.1317 203.878 42.5151C204.944 47.8986 207.578 52.8435 211.444 56.7248C215.31 60.606 220.237 63.2492 225.6 64.32C230.962 65.3908 236.521 64.8412 241.573 62.7407C246.625 60.6402 250.943 57.0831 253.98 52.5193C257.018 47.9555 258.639 42.5898 258.639 37.101C258.631 29.7431 255.715 22.6892 250.533 17.4864C245.35 12.2837 238.323 9.35707 230.993 9.34857Z" fill="#FCF0E3"/>
<path d="M243.643 21.8945H234.14C235.042 22.5928 235.792 23.4601 236.346 24.4453C236.9 25.4305 237.247 26.5139 237.367 27.6319H243.643V30.4558H237.419C236.848 36.2317 232.162 39.8577 224.801 40.0824C229.297 44.639 234.192 50.3507 239.036 56.1716H233.503C229.007 50.8834 224.801 45.9866 219.385 40.3647V36.8735H222.553C228.778 36.8735 232.122 34.3064 232.523 30.4558H219.379V27.6319H232.372C231.564 24.3653 228.508 22.7353 223.493 22.7353H219.405V19.0771H243.663L243.643 21.8945Z" fill="black"/>
<path d="M194.567 36.0348C203.605 36.0348 210.932 28.6799 210.932 19.6072C210.932 10.5345 203.605 3.17969 194.567 3.17969C185.529 3.17969 178.202 10.5345 178.202 19.6072C178.202 28.6799 185.529 36.0348 194.567 36.0348Z" fill="#1B1B25"/>
<path d="M192.984 34.9745C202.314 34.9745 209.877 27.3824 209.877 18.017C209.877 8.65169 202.314 1.05957 192.984 1.05957C183.654 1.05957 176.092 8.65169 176.092 18.017C176.092 27.3824 183.654 34.9745 192.984 34.9745Z" fill="#FDB718"/>
<path d="M192.99 31.7951C190.277 31.7964 187.624 30.9903 185.367 29.4786C183.11 27.9669 181.349 25.8175 180.308 23.3019C179.268 20.7864 178.993 18.0176 179.52 15.3454C180.046 12.6732 181.349 10.2175 183.265 8.28869C185.181 6.35984 187.624 5.04438 190.284 4.50851C192.944 3.97264 195.704 4.24042 198.213 5.27801C200.721 6.3156 202.868 8.07642 204.38 10.338C205.892 12.5996 206.703 15.2604 206.71 17.9843C206.71 21.6403 205.266 25.1472 202.694 27.7361C200.122 30.325 196.633 31.7847 192.99 31.7951ZM192.99 5.14026C190.452 5.14026 187.971 5.89603 185.859 7.31199C183.749 8.72794 182.104 10.7404 181.133 13.095C180.161 15.4495 179.908 18.0403 180.404 20.5397C180.9 23.039 182.122 25.3346 183.918 27.1361C185.713 28.9377 188.001 30.1642 190.491 30.6606C192.981 31.1569 195.562 30.9008 197.907 29.9247C200.252 28.9486 202.256 27.2963 203.665 25.1767C205.075 23.0571 205.827 20.5656 205.825 18.0172C205.82 14.6025 204.466 11.3292 202.06 8.91531C199.654 6.50131 196.392 5.14373 192.99 5.14026Z" fill="#FCF0E3"/>
<path d="M198.263 11.7264H194.539C194.894 12.0053 195.189 12.3528 195.406 12.7479C195.624 13.143 195.758 13.5777 195.803 14.0261H198.263V15.1476H195.841C195.613 17.4473 193.78 18.9279 190.891 18.9972C192.655 20.8243 194.571 23.1178 196.467 25.4364H194.305C192.541 23.3194 190.891 21.3662 188.767 19.1358V17.7182H190.031C192.466 17.7182 193.78 16.7039 193.938 15.1476H188.786V14.0261H193.844C193.527 12.7156 192.332 12.0666 190.367 12.0666H188.761V10.5986H198.244L198.263 11.7264Z" fill="black"/>
<path d="M178.16 63.4709C178.161 62.5663 177.971 61.6706 177.599 60.8348C177.228 59.999 176.684 59.2395 175.997 58.6C175.311 57.9604 174.496 57.4532 173.599 57.1074C172.701 56.7617 171.74 56.5841 170.77 56.5849C171.74 56.5849 172.702 56.4067 173.599 56.0602C174.496 55.7137 175.312 55.206 175.998 54.5659C176.685 53.9259 177.229 53.166 177.6 52.3299C177.971 51.4938 178.161 50.5976 178.16 49.6929C178.16 51.5197 178.939 53.2718 180.325 54.5641C181.71 55.8565 183.59 56.5833 185.551 56.5849C184.58 56.5849 183.619 56.763 182.723 57.1091C181.826 57.4551 181.011 57.9623 180.325 58.6017C179.638 59.2412 179.094 60.0003 178.723 60.8357C178.351 61.6711 178.16 62.5666 178.16 63.4709Z" fill="#F3CF48"/>
<path d="M258.443 84.7877C258.443 83.3831 257.888 82.036 256.897 81.0428C255.908 80.0496 254.565 79.4917 253.165 79.4917C253.859 79.4917 254.545 79.3545 255.186 79.088C255.827 78.8214 256.409 78.4307 256.9 77.9383C257.39 77.4458 257.779 76.8613 258.044 76.2179C258.309 75.5747 258.444 74.8854 258.443 74.1893C258.443 74.8854 258.579 75.5747 258.844 76.2179C259.109 76.8613 259.497 77.4458 259.988 77.9383C260.478 78.4307 261.06 78.8214 261.701 79.088C262.342 79.3545 263.029 79.4917 263.723 79.4917C262.323 79.4917 260.98 80.0496 259.99 81.0428C259 82.036 258.443 83.3831 258.443 84.7877Z" fill="#F3CF48"/>
<path d="M224.131 110.224C224.131 107.553 223.074 104.992 221.193 103.104C219.312 101.216 216.76 100.155 214.101 100.155C216.76 100.155 219.312 99.0947 221.193 97.2062C223.074 95.3178 224.131 92.7567 224.131 90.0865C224.131 92.7567 225.188 95.3178 227.069 97.2062C228.949 99.0947 231.501 100.155 234.16 100.155C231.501 100.155 228.949 101.216 227.069 103.104C225.188 104.992 224.131 107.553 224.131 110.224Z" fill="#F3CF48"/>
<path d="M254.189 28.7978C254.189 26.2681 253.244 23.8418 251.561 22.053C249.878 20.2642 247.596 19.2593 245.215 19.2593C247.596 19.2593 249.878 18.2543 251.561 16.4655C253.244 14.6767 254.189 12.2504 254.189 9.72064C254.189 12.2504 255.135 14.6767 256.818 16.4655C258.501 18.2543 260.784 19.2593 263.164 19.2593C261.985 19.2593 260.818 19.506 259.73 19.9854C258.64 20.4647 257.652 21.1673 256.818 22.053C255.985 22.9388 255.324 23.9903 254.873 25.1476C254.421 26.3048 254.189 27.5452 254.189 28.7978Z" fill="#FCF0E3"/>
<path d="M282.438 37.5274C282.439 36.7284 282.305 35.9372 282.045 35.1988C281.785 34.4604 281.402 33.7893 280.92 33.224C280.437 32.6588 279.864 32.2103 279.234 31.9043C278.603 31.5983 277.927 31.4408 277.244 31.4408C278.622 31.4408 279.943 30.8004 280.917 29.6603C281.891 28.5203 282.438 26.9742 282.438 25.3619C282.438 26.9742 282.986 28.5203 283.96 29.6603C284.934 30.8004 286.255 31.4408 287.632 31.4408C286.95 31.4408 286.274 31.5983 285.643 31.9043C285.013 32.2103 284.44 32.6588 283.957 33.224C283.475 33.7893 283.092 34.4604 282.832 35.1988C282.572 35.9372 282.437 36.7284 282.438 37.5274Z" fill="#F3CF48"/>
<path d="M90.1923 44.9373H26.7349C23.6505 45.0138 20.7182 46.2973 18.5636 48.5137C16.4091 50.7302 15.2031 53.7041 15.2031 56.8006C15.2031 59.8971 16.4091 62.8709 18.5636 65.0874C20.7182 67.3039 23.6505 68.5874 26.7349 68.6639H79.0328L86.2603 75.2429V68.6712H90.2279C93.3123 68.5947 96.2451 67.3111 98.3997 65.0947C100.554 62.8782 101.76 59.9043 101.76 56.8078C101.76 53.7113 100.554 50.7374 98.3997 48.521C96.2451 46.3045 93.3123 45.0211 90.2279 44.9445L90.1923 44.9373Z" fill="#4E7EB7"/>
<path d="M37.7784 59.6347C37.2307 59.4433 36.6382 59.431 36.0904 59.2396C35.9241 59.1826 35.5954 59.1133 35.5264 58.9219C35.4615 58.7345 35.4615 58.5145 35.4493 58.319C35.4412 58.1642 35.4371 58.0095 35.4371 57.8547C35.4371 57.7528 35.6969 57.5369 35.7536 57.4433C35.9727 57.0767 35.993 56.5838 36.0336 56.1683C36.3866 56.2661 36.4313 55.6103 36.4921 55.4108C36.5367 55.2723 36.8086 54.3191 36.3866 54.4494C36.4881 54.2702 36.5287 54.0503 36.557 53.8507C36.6382 53.3293 36.6706 52.759 36.5124 52.2498C36.1837 51.1909 35.1734 50.5962 34.1062 50.5636C33.0228 50.5269 31.9353 51.0483 31.5296 52.1032C31.3347 52.6164 31.351 53.1745 31.416 53.7122C31.4443 53.9566 31.4849 54.2295 31.6066 54.4494C31.2131 54.3313 31.424 55.1704 31.4686 55.3171C31.5336 55.5248 31.5904 56.2701 31.9597 56.1683C31.9921 56.4982 32.0286 56.8363 32.118 57.1581C32.1788 57.374 32.3045 57.5573 32.4507 57.7243C32.5237 57.8058 32.5602 57.8139 32.5561 57.9198C32.5521 58.2376 32.5602 58.5797 32.479 58.8893C32.3979 59.1989 31.7202 59.3292 31.4484 59.3862C30.718 59.537 30.0445 59.6062 29.4358 60.0624C28.7256 60.5879 28.3564 61.4065 28.3564 62.2904H39.6369C39.6369 61.0888 38.9146 60.0298 37.7784 59.6347Z" fill="#F3CF48"/>
<path d="M30.8618 60.3676C30.4401 60.2202 29.9841 60.2108 29.5625 60.0634C29.4344 60.0195 29.1814 59.9662 29.1283 59.8188C29.0782 59.6746 29.0782 59.5052 29.0689 59.3548C29.0626 59.2356 29.0595 59.1165 29.0595 58.9973C29.0595 58.9189 29.2595 58.7527 29.3031 58.6806C29.4718 58.3984 29.4875 58.019 29.5187 57.6992C29.7905 57.7745 29.8248 57.2697 29.8717 57.116C29.906 57.0094 30.1153 56.2757 29.7905 56.3761C29.8686 56.2381 29.8998 56.0687 29.9216 55.9151C29.9841 55.5137 30.0091 55.0748 29.8873 54.6828C29.6343 53.8676 28.8565 53.4098 28.035 53.3848C27.201 53.3565 26.3638 53.7579 26.0515 54.5699C25.9016 54.965 25.9141 55.3946 25.9641 55.8085C25.9859 55.9966 26.0172 56.2067 26.1109 56.3761C25.8079 56.2851 25.9703 56.931 26.0047 57.0439C26.0546 57.2038 26.0984 57.7776 26.3827 57.6992C26.4076 57.9532 26.4357 58.2135 26.5044 58.4612C26.5513 58.6273 26.6481 58.7684 26.7606 58.897C26.8168 58.9597 26.8449 58.966 26.8418 59.0475C26.8387 59.292 26.8449 59.5554 26.7824 59.7938C26.72 60.0321 26.1983 60.1324 25.9891 60.1763C25.4268 60.2923 24.9083 60.3456 24.4398 60.6968C23.8932 61.1013 23.6089 61.7315 23.6089 62.412H32.2925C32.2925 61.487 31.7364 60.6717 30.8618 60.3676Z" fill="#F3CF48"/>
<path d="M90.9949 51.3141H45.5195C45.4238 51.3141 45.3318 51.2759 45.264 51.2079C45.1963 51.1399 45.1582 51.0476 45.1582 50.9514C45.1582 50.8552 45.1963 50.763 45.264 50.695C45.3318 50.627 45.4238 50.5887 45.5195 50.5887H90.9949C91.0902 50.5887 91.1821 50.627 91.2506 50.695C91.3182 50.763 91.3563 50.8552 91.3563 50.9514C91.3563 51.0476 91.3182 51.1399 91.2506 51.2079C91.1821 51.2759 91.0902 51.3141 90.9949 51.3141Z" fill="white"/>
<path d="M83.9335 62.0276H45.5195C45.4238 62.0276 45.3318 61.9893 45.264 61.9214C45.1963 61.8534 45.1582 61.7611 45.1582 61.6649C45.1582 61.5687 45.1963 61.4765 45.264 61.4084C45.3318 61.3405 45.4238 61.3022 45.5195 61.3022H83.9335C84.0293 61.3022 84.1213 61.3405 84.189 61.4084C84.2567 61.4765 84.2949 61.5687 84.2949 61.6649C84.2949 61.7125 84.2855 61.7597 84.2673 61.8037C84.2492 61.8477 84.2226 61.8877 84.189 61.9214C84.1554 61.955 84.1157 61.9817 84.0718 62C84.0279 62.0182 83.981 62.0276 83.9335 62.0276Z" fill="white"/>
<path d="M73.4753 57.0077H45.5195C45.4238 57.0077 45.3318 56.9695 45.264 56.9014C45.1963 56.8334 45.1582 56.7412 45.1582 56.645C45.1582 56.5488 45.1963 56.4566 45.264 56.3885C45.3318 56.3205 45.4238 56.2823 45.5195 56.2823H73.4753C73.5706 56.2842 73.6615 56.323 73.7288 56.3906C73.7962 56.4582 73.8348 56.5494 73.8367 56.645C73.8367 56.7412 73.7987 56.8334 73.7309 56.9014C73.6631 56.9695 73.5712 57.0077 73.4753 57.0077Z" fill="white"/>
<path d="M90.9938 57.0077H76.958C76.8621 57.0077 76.7703 56.9695 76.7025 56.9014C76.6347 56.8334 76.5967 56.7412 76.5967 56.645C76.5967 56.5488 76.6347 56.4566 76.7025 56.3885C76.7703 56.3205 76.8621 56.2823 76.958 56.2823H90.9938C91.0892 56.2823 91.1819 56.3205 91.2495 56.3885C91.3171 56.4566 91.3552 56.5488 91.3552 56.645C91.3552 56.7412 91.3171 56.8334 91.2495 56.9014C91.1819 56.9695 91.0892 57.0077 90.9938 57.0077Z" fill="white"/>
<path d="M34.5621 60.6201C34.2757 60.6218 34.0003 60.5097 33.796 60.3082L31.0712 57.5736C30.8798 57.3673 30.7755 57.0945 30.7804 56.8127C30.7854 56.5307 30.8992 56.2618 31.0978 56.0625C31.2965 55.8632 31.5644 55.7489 31.8453 55.744C32.1261 55.739 32.398 55.8437 32.6035 56.0358L34.5621 57.9943L39.8165 52.7209C39.9157 52.614 40.0354 52.5283 40.1684 52.4688C40.3014 52.4093 40.4449 52.3773 40.5905 52.3747C40.7361 52.3722 40.8807 52.3991 41.0157 52.4538C41.1506 52.5085 41.2733 52.5899 41.3762 52.6933C41.4792 52.7966 41.5603 52.9197 41.6148 53.0552C41.6693 53.1906 41.6961 53.3358 41.6936 53.4818C41.691 53.6279 41.6592 53.772 41.5999 53.9054C41.5406 54.0389 41.4552 54.159 41.3487 54.2587L35.3427 60.3082C35.2398 60.4097 35.1178 60.4896 34.9837 60.5432C34.8497 60.5967 34.7064 60.6229 34.5621 60.6201Z" fill="white"/>
<path d="M440.817 111.393H507.311C508.963 111.353 510.606 111.639 512.144 112.232C513.681 112.826 515.083 113.716 516.265 114.85C517.447 115.983 518.386 117.338 519.028 118.835C519.67 120.331 520 121.937 520 123.561C520 125.184 519.67 126.792 519.028 128.287C518.386 129.783 517.447 131.138 516.265 132.272C515.083 133.406 513.681 134.295 512.144 134.89C510.606 135.483 508.963 135.769 507.311 135.729H452.517L444.973 142.475V135.736H440.817C437.585 135.658 434.512 134.343 432.255 132.069C429.997 129.795 428.732 126.745 428.732 123.568C428.732 120.391 429.997 117.341 432.255 115.067C434.512 112.793 437.585 111.478 440.817 111.4V111.393Z" fill="#FDB718"/>
<path d="M484.912 118.916H438.467C438.37 118.914 438.277 118.875 438.208 118.808C438.139 118.74 438.099 118.649 438.098 118.553C438.098 118.457 438.137 118.365 438.206 118.297C438.275 118.229 438.369 118.191 438.467 118.191H484.912C485.01 118.191 485.104 118.229 485.173 118.297C485.243 118.365 485.282 118.457 485.282 118.553C485.28 118.649 485.24 118.74 485.172 118.808C485.102 118.875 485.009 118.914 484.912 118.916Z" fill="white"/>
<path d="M477.708 129.622H438.467C438.369 129.622 438.275 129.584 438.206 129.516C438.137 129.448 438.098 129.355 438.098 129.259C438.098 129.163 438.137 129.071 438.206 129.002C438.275 128.935 438.369 128.897 438.467 128.897H477.708C477.806 128.897 477.9 128.935 477.969 129.002C478.038 129.071 478.077 129.163 478.077 129.259C478.077 129.355 478.038 129.448 477.969 129.516C477.9 129.584 477.806 129.622 477.708 129.622Z" fill="white"/>
<path d="M467.019 124.61H438.467C438.37 124.608 438.277 124.569 438.208 124.502C438.139 124.434 438.099 124.343 438.098 124.247C438.098 124.151 438.137 124.059 438.206 123.991C438.275 123.923 438.369 123.885 438.467 123.885H467.019C467.117 123.885 467.211 123.923 467.28 123.991C467.349 124.059 467.388 124.151 467.388 124.247C467.388 124.343 467.349 124.436 467.28 124.504C467.211 124.572 467.117 124.61 467.019 124.61Z" fill="white"/>
<path d="M484.913 124.61H470.585C470.487 124.61 470.393 124.572 470.323 124.504C470.255 124.436 470.216 124.343 470.216 124.247C470.216 124.151 470.255 124.059 470.323 123.991C470.393 123.923 470.487 123.885 470.585 123.885H484.913C485.011 123.885 485.104 123.923 485.174 123.991C485.243 124.059 485.281 124.151 485.281 124.247C485.279 124.343 485.24 124.434 485.171 124.502C485.103 124.569 485.01 124.608 484.913 124.61Z" fill="white"/>
<path d="M355.256 32.2195H400.11C402.282 32.2836 404.344 33.1948 405.858 34.7597C407.372 36.3245 408.218 38.4199 408.218 40.6011C408.218 42.7822 407.372 44.8777 405.858 46.4425C404.344 48.0074 402.282 48.9185 400.11 48.9826H355.256C353.084 48.9185 351.022 48.0074 349.508 46.4425C347.994 44.8777 347.147 42.7822 347.147 40.6011C347.147 38.4199 347.994 36.3245 349.508 34.7597C351.022 33.1948 353.084 32.2836 355.256 32.2195Z" fill="#4E7EB7"/>
<path d="M395.043 37.8411H360.272C360.176 37.8411 360.084 37.8029 360.016 37.7349C359.948 37.6668 359.91 37.5746 359.91 37.4784C359.91 37.3822 359.948 37.29 360.016 37.222C360.084 37.1539 360.176 37.1157 360.272 37.1157H395.043C395.138 37.1157 395.231 37.1539 395.299 37.222C395.366 37.29 395.404 37.3822 395.404 37.4784C395.404 37.5746 395.366 37.6668 395.299 37.7349C395.231 37.8029 395.138 37.8411 395.043 37.8411Z" fill="white"/>
<path d="M389.652 44.1881H360.272C360.176 44.1881 360.084 44.1499 360.016 44.0819C359.948 44.0139 359.91 43.9216 359.91 43.8254C359.91 43.7292 359.948 43.637 360.016 43.569C360.084 43.501 360.176 43.4628 360.272 43.4628H389.652C389.747 43.4628 389.839 43.501 389.907 43.569C389.975 43.637 390.013 43.7292 390.013 43.8254C390.011 43.921 389.972 44.0122 389.905 44.0799C389.838 44.1475 389.747 44.1863 389.652 44.1881Z" fill="white"/>
<path d="M381.65 41.2137H360.272C360.176 41.2137 360.084 41.1755 360.016 41.1075C359.948 41.0395 359.91 40.9472 359.91 40.851C359.91 40.7548 359.948 40.6626 360.016 40.5946C360.084 40.5266 360.176 40.4883 360.272 40.4883H381.65C381.747 40.4883 381.839 40.5266 381.906 40.5946C381.974 40.6626 382.012 40.7548 382.012 40.851C382.012 40.9472 381.974 41.0395 381.906 41.1075C381.839 41.1755 381.747 41.2137 381.65 41.2137Z" fill="white"/>
<path d="M395.043 41.2137H384.317C384.222 41.2137 384.13 41.1755 384.062 41.1075C383.994 41.0395 383.956 40.9472 383.956 40.851C383.956 40.7548 383.994 40.6626 384.062 40.5946C384.13 40.5266 384.222 40.4883 384.317 40.4883H395.043C395.14 40.4883 395.231 40.5266 395.299 40.5946C395.367 40.6626 395.405 40.7548 395.405 40.851C395.405 40.9472 395.367 41.0395 395.299 41.1075C395.231 41.1755 395.14 41.2137 395.043 41.2137Z" fill="white"/>
<path d="M7.19812 145.837H47.0792C48.0739 145.806 49.0648 145.976 49.9929 146.337C50.921 146.697 51.7675 147.241 52.482 147.937C53.1966 148.632 53.7648 149.464 54.1528 150.384C54.5408 151.304 54.7407 152.292 54.7407 153.291C54.7407 154.289 54.5408 155.278 54.1528 156.198C53.7648 157.118 53.1966 157.95 52.482 158.645C51.7675 159.34 50.921 159.884 49.9929 160.245C49.0648 160.605 48.0739 160.775 47.0792 160.744H7.19812C5.26867 160.683 3.4384 159.871 2.09485 158.48C0.751314 157.089 0 155.228 0 153.291C0 151.354 0.751314 149.492 2.09485 148.101C3.4384 146.71 5.26867 145.898 7.19812 145.837Z" fill="#FDB718"/>
<path d="M42.5768 150.88H11.6577C11.5619 150.88 11.47 150.842 11.4022 150.773C11.3344 150.706 11.2964 150.613 11.2964 150.517C11.2964 150.42 11.3344 150.329 11.4022 150.26C11.47 150.192 11.5619 150.154 11.6577 150.154H42.5768C42.6727 150.154 42.7645 150.192 42.8323 150.26C42.9001 150.329 42.9382 150.42 42.9382 150.517C42.9382 150.613 42.9001 150.706 42.8323 150.773C42.7645 150.842 42.6727 150.88 42.5768 150.88Z" fill="white"/>
<path d="M37.7922 156.514H11.6577C11.5619 156.514 11.47 156.476 11.4022 156.408C11.3344 156.34 11.2964 156.248 11.2964 156.152C11.2982 156.055 11.3369 155.964 11.4043 155.897C11.4716 155.829 11.5625 155.79 11.6577 155.789H37.7922C37.8881 155.789 37.98 155.827 38.0478 155.895C38.1156 155.963 38.1536 156.055 38.1536 156.152C38.1536 156.248 38.1156 156.34 38.0478 156.408C37.98 156.476 37.8881 156.514 37.7922 156.514Z" fill="white"/>
<path d="M30.666 153.875H11.6577C11.5619 153.875 11.47 153.837 11.4022 153.768C11.3344 153.701 11.2964 153.608 11.2964 153.512C11.2982 153.416 11.3369 153.325 11.4043 153.258C11.4716 153.19 11.5625 153.151 11.6577 153.15H30.666C30.7618 153.15 30.8538 153.188 30.9214 153.255C30.9892 153.324 31.0274 153.416 31.0274 153.512C31.0274 153.608 30.9892 153.701 30.9214 153.768C30.8538 153.837 30.7618 153.875 30.666 153.875Z" fill="white"/>
<path d="M42.577 153.875H33.0367C32.9408 153.875 32.849 153.837 32.7812 153.768C32.7134 153.701 32.6753 153.608 32.6753 153.512C32.6772 153.416 32.7159 153.325 32.7832 153.258C32.8506 153.19 32.9414 153.151 33.0367 153.15H42.577C42.6728 153.15 42.7647 153.188 42.8325 153.255C42.9002 153.324 42.9384 153.416 42.9384 153.512C42.9384 153.608 42.9002 153.701 42.8325 153.768C42.7647 153.837 42.6728 153.875 42.577 153.875Z" fill="white"/>
<path d="M316.697 217.402H255.97C255.873 217.4 255.781 217.354 255.713 217.272C255.644 217.192 255.605 217.083 255.604 216.968C255.604 216.853 255.642 216.742 255.711 216.661C255.779 216.579 255.873 216.533 255.97 216.533H316.697C316.795 216.533 316.888 216.579 316.957 216.661C317.026 216.742 317.064 216.853 317.064 216.968C317.064 217.084 317.026 217.194 316.957 217.275C316.888 217.357 316.795 217.402 316.697 217.402Z" fill="#1B1B25"/>
<path d="M316.703 209.582H273.276C273.18 209.582 273.088 209.536 273.021 209.454C272.953 209.373 272.915 209.263 272.915 209.147C272.915 209.032 272.953 208.921 273.021 208.84C273.088 208.758 273.18 208.713 273.276 208.713H316.703C316.799 208.713 316.891 208.758 316.958 208.84C317.026 208.921 317.063 209.032 317.063 209.147C317.063 209.263 317.026 209.373 316.958 209.454C316.891 209.536 316.799 209.582 316.703 209.582Z" fill="#1B1B25"/>
<path d="M267.362 209.582H245.575C245.48 209.582 245.388 209.536 245.321 209.454C245.253 209.373 245.215 209.263 245.215 209.147C245.215 209.032 245.253 208.921 245.321 208.84C245.388 208.758 245.48 208.713 245.575 208.713H267.362C267.457 208.713 267.549 208.758 267.616 208.84C267.684 208.921 267.722 209.032 267.722 209.147C267.722 209.263 267.684 209.373 267.616 209.454C267.549 209.536 267.457 209.582 267.362 209.582Z" fill="#1B1B25"/>
<path d="M222.347 243.471H162.475C162.378 243.471 162.287 243.426 162.219 243.344C162.151 243.263 162.113 243.152 162.113 243.037C162.115 242.922 162.154 242.813 162.221 242.733C162.288 242.651 162.379 242.604 162.475 242.603H222.347C222.442 242.604 222.533 242.651 222.601 242.733C222.668 242.813 222.706 242.922 222.708 243.037C222.708 243.152 222.67 243.263 222.602 243.344C222.535 243.426 222.443 243.471 222.347 243.471Z" fill="#1B1B25"/>
<path d="M205.901 236.519H162.473C162.378 236.519 162.286 236.473 162.218 236.392C162.151 236.311 162.113 236.2 162.113 236.085C162.113 235.97 162.151 235.86 162.218 235.778C162.286 235.696 162.378 235.651 162.473 235.651H205.901C205.996 235.651 206.088 235.696 206.156 235.778C206.223 235.86 206.261 235.97 206.261 236.085C206.261 236.2 206.223 236.311 206.156 236.392C206.088 236.473 205.996 236.519 205.901 236.519Z" fill="#1B1B25"/>
<path d="M233.601 236.519H211.815C211.72 236.519 211.628 236.473 211.56 236.392C211.493 236.311 211.455 236.2 211.455 236.085C211.455 235.97 211.493 235.86 211.56 235.778C211.628 235.696 211.72 235.651 211.815 235.651H233.601C233.697 235.651 233.789 235.696 233.856 235.778C233.924 235.86 233.962 235.97 233.962 236.085C233.962 236.2 233.924 236.311 233.856 236.392C233.789 236.473 233.697 236.519 233.601 236.519Z" fill="#1B1B25"/>
<path opacity="0.17" d="M289.754 160.051L288.143 165.678C287.721 167.232 287.236 168.906 286.736 170.602L284.787 177.382C284.52 178.234 284.181 179.063 283.774 179.858C282.093 184.879 280.707 188.727 280.707 188.727L300.617 160.17C295.692 160.17 294.545 160.051 289.754 160.051Z" fill="#FF887C"/>
<path d="M289.796 159.617L289.955 159.153L300.556 122.615L300.504 122.579C301.523 120.714 302.981 119.119 304.753 117.929C306.062 116.977 307.169 115.779 308.01 114.402C308.85 113.025 309.406 111.498 309.647 109.906C311.977 107.665 314.614 105.758 316.973 103.574C317.242 103.368 317.444 103.088 317.551 102.768C317.574 102.582 317.56 102.393 317.508 102.213C317.456 102.032 317.369 101.864 317.251 101.717C316.02 99.9102 313.764 99.6493 311.881 100.484C310.791 100.99 309.778 101.644 308.87 102.428C308.005 103.018 307.205 103.697 306.482 104.452L314.922 86.6143C315.654 85.033 315.178 83.2195 313.829 82.5957C313.492 82.4487 313.128 82.3764 312.759 82.384C312.391 82.3915 312.029 82.4786 311.698 82.6392C311.243 82.8581 310.841 83.1754 310.526 83.5677L310.57 83.3573C300.687 75.1315 288.49 103.132 288.49 103.132L285.032 111.219L255.684 165.101C254.7 166.956 254.102 168.989 253.926 171.077C253.75 173.165 253.999 175.268 254.659 177.258C255.317 179.25 256.374 181.09 257.764 182.67C259.155 184.25 260.851 185.538 262.753 186.456L263.098 186.609C265.527 188.001 268.284 188.731 271.091 188.727H328.848L341.734 159.617H289.796Z" fill="#FFD5CA"/>
<path d="M298.368 107.045C298.293 107.045 298.222 107.02 298.163 106.974C298.088 106.919 298.039 106.837 298.024 106.746C298.009 106.655 298.032 106.561 298.085 106.486C298.966 105.148 300.313 104.184 301.866 103.779C303.418 103.374 305.066 103.558 306.49 104.295C306.532 104.316 306.568 104.347 306.597 104.383C306.626 104.419 306.649 104.461 306.662 104.505C306.675 104.55 306.679 104.597 306.674 104.643C306.669 104.69 306.655 104.734 306.633 104.776C306.585 104.855 306.509 104.914 306.418 104.939C306.329 104.964 306.233 104.953 306.151 104.909C305.973 104.81 301.849 102.591 298.659 106.903C298.625 106.948 298.58 106.983 298.53 107.008C298.48 107.032 298.424 107.045 298.368 107.045Z" fill="#FB8E77"/>
<path d="M310.11 83.9577C308.677 85.9383 307.367 88.0222 306.186 90.1958C305.597 91.2826 305.078 92.4136 304.631 93.5792C304.157 94.6825 303.907 95.8863 303.898 97.1074C303.898 97.208 303.862 97.3042 303.798 97.3752C303.734 97.4463 303.646 97.4862 303.555 97.4862C303.465 97.4862 303.378 97.4463 303.313 97.3752C303.249 97.3042 303.213 97.208 303.213 97.1074C303.226 95.7702 303.517 94.4546 304.062 93.262C304.542 92.0877 305.096 90.9515 305.72 89.863C306.949 87.6911 308.311 85.615 309.794 83.6474C309.833 83.6057 309.884 83.5824 309.938 83.5824C309.992 83.5824 310.044 83.6057 310.082 83.6474C310.118 83.6907 310.138 83.7474 310.138 83.8063C310.138 83.8652 310.118 83.922 310.082 83.9653L310.11 83.9577Z" fill="#FB8E77"/>
<path d="M307.41 83.1603C306.495 83.8774 305.67 84.7202 304.956 85.6672C304.225 86.6098 303.571 87.6174 302.998 88.6799C302.433 89.7459 301.936 90.8518 301.509 91.9906C301.289 92.5557 301.117 93.1433 300.916 93.7239L300.427 95.4868C300.398 95.5804 300.337 95.6584 300.256 95.7043C300.175 95.7502 300.081 95.7606 299.992 95.732C299.906 95.7025 299.834 95.6384 299.791 95.5518C299.749 95.466 299.739 95.3646 299.765 95.271L300.303 93.4778C300.517 92.8902 300.703 92.2957 300.944 91.7228C301.4 90.5615 301.93 89.4357 302.529 88.3524C303.139 87.276 303.831 86.2558 304.598 85.3027C305.362 84.3334 306.24 83.4756 307.21 82.7512C307.258 82.7176 307.316 82.7058 307.371 82.7184C307.427 82.7309 307.475 82.7668 307.506 82.8181C307.538 82.8694 307.549 82.9319 307.537 82.9919C307.526 83.0519 307.493 83.1044 307.445 83.138L307.41 83.1603Z" fill="#FB8E77"/>
<path d="M304.022 83.0947C302.635 84.6198 301.377 86.2704 300.259 88.0282C299.7 88.8957 299.206 89.8083 298.78 90.7573C298.35 91.6838 298.043 92.6692 297.868 93.6849C297.861 93.7352 297.845 93.7829 297.821 93.8253C297.796 93.8687 297.764 93.9059 297.726 93.9354C297.688 93.9657 297.645 93.9865 297.6 93.9987C297.554 94.0108 297.506 94.0134 297.459 94.0056C297.366 93.9883 297.282 93.9337 297.225 93.8531C297.17 93.7716 297.145 93.6711 297.158 93.5714C297.363 92.4898 297.711 91.4455 298.192 90.4679C298.654 89.4998 299.187 88.5725 299.785 87.6919C300.963 85.9394 302.28 84.2966 303.72 82.7821C303.74 82.7607 303.763 82.7436 303.788 82.7319C303.814 82.7201 303.841 82.7138 303.869 82.7135C303.897 82.7131 303.924 82.7187 303.95 82.7297C303.976 82.7409 303.999 82.7574 304.018 82.7782C304.038 82.7991 304.054 82.8239 304.064 82.8512C304.075 82.8786 304.08 82.9078 304.08 82.9372C304.079 82.9668 304.074 82.9959 304.062 83.0229C304.051 83.05 304.035 83.0743 304.015 83.0947H304.022Z" fill="#FB8E77"/>
<path d="M342.158 159.627L305.051 159.773L289.759 159.627L299.159 125.648L278.581 114.865L254.611 168.638C253.625 171.709 253.625 175.014 254.611 178.084C255.643 181.13 257.585 183.782 260.172 185.678C266.997 190.997 275.507 189.472 277.207 189.137L305.023 189.253H318.739L318.811 188.476C318.811 172.918 332.275 160.274 349.014 159.932L349.093 159.605L342.158 159.627Z" fill="#4E7EB7"/>
<path d="M279.841 115.843L281.519 112.258L300.616 123.404L299.725 126.162L279.841 115.843Z" fill="white"/>
<path d="M384.887 84.6495C384.621 82.7741 383.9 80.9934 382.787 79.4643C381.674 77.9352 380.204 76.7048 378.505 75.8816C376.807 75.0583 374.934 74.6675 373.049 74.7437C371.165 74.8199 369.329 75.3607 367.702 76.3184C366.914 75.0093 365.843 73.8959 364.567 73.0613C363.292 72.2268 361.844 71.6927 360.334 71.4988C358.824 71.305 357.289 71.4565 355.846 71.942C354.402 72.4275 353.087 73.2346 351.996 74.3027C349.093 72.8422 345.759 72.4937 342.617 73.3223C339.477 74.1508 336.743 76.0999 334.928 78.8052C333.113 81.5105 332.34 84.7872 332.755 88.023C333.169 91.2583 334.742 94.2327 337.179 96.3881L334.458 110.97C334.084 112.981 334.521 115.059 335.671 116.747C336.821 118.436 338.592 119.597 340.593 119.975L372.812 126.029C373.803 126.216 374.822 126.205 375.809 125.996C376.796 125.788 377.733 125.386 378.565 124.813C379.398 124.241 380.109 123.51 380.661 122.661C381.212 121.812 381.59 120.862 381.776 119.866L387.052 91.5521C387.282 90.311 387.205 89.0327 386.827 87.8298C386.45 86.6257 385.783 85.5337 384.887 84.6495Z" fill="#1B1B25"/>
<path d="M338.202 91.403C338.127 91.4013 338.054 91.3848 337.989 91.3553C337.924 91.3259 337.869 91.2851 337.829 91.2349C330.727 82.4122 340.492 76.7518 340.599 76.6959C340.647 76.669 340.7 76.6498 340.758 76.6395C340.815 76.6292 340.874 76.628 340.932 76.6358C340.989 76.6436 341.044 76.6603 341.094 76.685C341.143 76.7098 341.187 76.742 341.22 76.7798C341.254 76.8168 341.278 76.8589 341.291 76.9033C341.304 76.9478 341.305 76.9939 341.296 77.0389C341.285 77.0839 341.265 77.1268 341.233 77.1651C341.202 77.2036 341.161 77.2367 341.114 77.2626C340.74 77.4795 331.951 82.6011 338.583 90.8639C338.644 90.9437 338.663 91.0381 338.636 91.1283C338.609 91.2184 338.54 91.2964 338.441 91.3467C338.369 91.3822 338.287 91.4021 338.202 91.403Z" fill="#FCF0E3"/>
<path d="M379.951 113.005L379.225 112.868L372.077 97.6074C370.342 97.3622 368.687 96.726 367.237 95.7476C365.674 97.4306 363.504 98.4299 361.201 98.5261C358.898 98.6214 356.651 97.8068 354.952 96.2598C352.744 98.1881 349.962 99.3434 347.029 99.5488C344.097 99.755 341.178 98.9993 338.719 97.3986L333.763 123.816C333.101 127.319 333.757 130.941 335.606 133.994C336.503 136.203 337.924 138.163 339.746 139.709C341.57 141.255 343.741 142.341 346.077 142.875V160.326C346.085 163.247 347.257 166.045 349.336 168.111C351.414 170.176 354.232 171.34 357.172 171.348H360.67C363.611 171.34 366.428 170.176 368.507 168.111C370.586 166.045 371.757 163.247 371.765 160.326V140.518C373.627 138.498 374.883 136.002 375.393 133.31L376.307 128.488L377.034 128.618C379.06 128.99 381.152 128.551 382.852 127.394C384.552 126.238 385.722 124.458 386.104 122.447L386.184 122.029C386.372 121.03 386.359 120.004 386.147 119.009C385.936 118.015 385.53 117.071 384.951 116.233C384.372 115.395 383.632 114.678 382.774 114.124C381.916 113.571 380.956 113.19 379.951 113.005Z" fill="#FFD5CA"/>
<path opacity="0.32" d="M374.736 127.258L374.187 130.756C373.888 132.673 373.208 134.514 372.185 136.173C371.161 137.833 369.816 139.279 368.225 140.429C366.634 141.579 364.829 142.41 362.911 142.874C360.994 143.339 359.003 143.429 357.052 143.138L345.453 141.406C343.347 141.093 341.736 139.63 340.004 138.327C338.053 136.858 336.823 135.743 335.676 133.982C336.706 136.279 337.974 138.541 340.004 140.065C342.034 141.589 345.198 142.672 346.064 143.107L347.172 143.597C348.156 145.454 349.654 147.001 351.493 148.059C353.333 149.116 355.44 149.642 357.572 149.577L361.193 149.454C363.745 149.359 366.19 148.422 368.135 146.795C370.08 145.168 371.411 142.945 371.913 140.486C373.912 138.312 375.218 135.61 375.668 132.715L376.437 127.819L374.736 127.258Z" fill="#FF887C"/>
<path d="M380.931 123.555C380.848 123.555 380.767 123.527 380.7 123.473L377.802 121.03C377.761 120.993 377.728 120.947 377.703 120.895C377.679 120.844 377.664 120.787 377.66 120.729C377.657 120.669 377.666 120.611 377.686 120.555C377.706 120.5 377.738 120.451 377.779 120.411L381.356 116.723C381.39 116.685 381.43 116.655 381.475 116.634C381.52 116.613 381.568 116.603 381.617 116.603C381.665 116.603 381.713 116.613 381.758 116.634C381.803 116.655 381.843 116.685 381.878 116.723C381.912 116.761 381.94 116.806 381.959 116.855C381.978 116.905 381.988 116.958 381.988 117.012C381.988 117.066 381.978 117.119 381.959 117.168C381.94 117.218 381.912 117.263 381.878 117.301L378.622 120.656L381.177 122.83C381.237 122.883 381.28 122.954 381.302 123.035C381.323 123.116 381.321 123.202 381.296 123.282C381.27 123.36 381.223 123.43 381.161 123.478C381.098 123.528 381.023 123.554 380.946 123.555H380.931Z" fill="#FB8E77"/>
<path d="M362.209 109.703C361.66 109.755 361.106 109.693 360.583 109.521C360.019 109.386 359.45 109.26 358.952 109.163C358.452 109.066 357.87 108.991 357.292 108.908C356.743 108.886 356.206 108.748 355.717 108.501C355.32 108.24 355.242 107.692 355.871 107.146C356.392 106.783 356.986 106.534 357.611 106.417C358.236 106.3 358.879 106.317 359.496 106.467C360.123 106.545 360.727 106.757 361.262 107.091C361.799 107.426 362.254 107.874 362.597 108.404C362.998 109.108 362.677 109.595 362.209 109.703Z" fill="#1B1B25"/>
<path d="M339.122 107.669C339.718 107.917 340.355 108.05 341 108.06C341.679 108.123 342.358 108.194 342.95 108.28C343.542 108.365 344.213 108.475 344.884 108.608C345.504 108.774 346.149 108.822 346.786 108.748C347.325 108.631 347.605 108.107 347.091 107.357C346.126 106.235 344.758 105.541 343.285 105.426C342.579 105.276 341.85 105.267 341.141 105.401C340.431 105.536 339.756 105.81 339.153 106.207C338.49 106.825 338.638 107.403 339.122 107.669Z" fill="#1B1B25"/>
<path d="M356.438 113.695C356.727 113.117 357.564 112.049 358.604 112.395C359.644 112.742 359.616 114.129 359.471 114.562" stroke="black"/>
<path d="M340.837 111.596C341.127 111.018 341.964 109.95 343.004 110.296C344.044 110.643 344.015 112.03 343.871 112.463" stroke="black"/>
<path opacity="0.17" d="M358.225 120.046L361.428 120.408C362.035 120.476 362.582 120.038 362.65 119.429L362.658 119.364C362.726 118.755 362.289 118.206 361.683 118.137L358.48 117.776C357.872 117.707 357.325 118.145 357.257 118.754L357.25 118.819C357.181 119.428 357.618 119.978 358.225 120.046Z" fill="#FF887C"/>
<path opacity="0.17" d="M337.13 116.706L340.333 117.068C340.94 117.136 341.488 116.698 341.556 116.089L341.563 116.024C341.631 115.415 341.195 114.865 340.588 114.797L337.385 114.436C336.777 114.367 336.23 114.805 336.162 115.414L336.155 115.479C336.087 116.088 336.523 116.637 337.13 116.706Z" fill="#FF887C"/>
<path d="M355.607 124.115C355.475 124.008 355.322 123.935 355.159 123.905C354.922 123.851 347.272 122.167 344.944 121.89C344.664 121.887 344.394 122.002 344.194 122.211C343.995 122.421 343.881 122.706 343.878 123.004C343.877 123.303 343.985 123.591 344.182 123.804C345.941 125.669 350.476 128.538 355.423 126.02C355.551 125.96 355.665 125.873 355.76 125.764C355.853 125.655 355.926 125.525 355.972 125.386C356.017 125.245 356.035 125.096 356.025 124.948C356.015 124.8 355.976 124.656 355.911 124.524C355.843 124.364 355.738 124.224 355.607 124.115Z" fill="white"/>
<path d="M351.317 119.209H351.22L348.502 118.549C347.935 118.412 347.41 118.155 346.965 117.798C346.522 117.442 346.171 116.995 345.94 116.491C345.71 115.988 345.606 115.442 345.636 114.894C345.665 114.347 345.829 113.814 346.114 113.336L350.259 106.351C350.309 106.272 350.39 106.213 350.485 106.188C350.58 106.164 350.682 106.174 350.769 106.218C350.813 106.24 350.851 106.27 350.882 106.306C350.913 106.342 350.937 106.383 350.95 106.428C350.964 106.472 350.969 106.519 350.963 106.564C350.958 106.61 350.943 106.655 350.919 106.695L346.775 113.68C346.541 114.065 346.405 114.495 346.378 114.938C346.35 115.381 346.432 115.823 346.618 116.231C346.803 116.639 347.086 117.002 347.446 117.29C347.805 117.579 348.231 117.786 348.689 117.895L351.415 118.557C351.51 118.581 351.591 118.64 351.64 118.719C351.69 118.8 351.703 118.895 351.678 118.985C351.651 119.053 351.601 119.111 351.536 119.152C351.471 119.193 351.395 119.213 351.317 119.209Z" fill="#FB8E77"/>
<path d="M356.681 124.338C356.681 124.338 357.511 122.606 351.059 120.957C344.607 119.308 343.307 121.78 343.307 121.78" fill="#1B1B25"/>
<path d="M420.942 213.058L407.676 174.638C405.996 166.275 397.951 159.929 388.278 159.929L379.391 159.617H368.137H348.823L340.18 159.907C339.797 160.641 338.557 160.74 338.273 160.92C337.824 161.203 336.974 161.354 336.541 161.789C331.317 163.571 327.264 167.351 323.835 171.649C321.062 175.257 319.241 179.496 318.537 183.979C318.398 185.714 318.26 187.454 318.128 189.187L311.005 265.948L408.911 266.499L408.364 214.523L420.942 213.058Z" fill="#4E7EB7"/>
<path d="M345.198 160.137C343.485 167.235 343.253 174.937 343.899 182.21C345.008 193.976 350.567 202.929 357.317 212.624C360.662 208.704 361.792 206.859 364.424 202.426C371.974 189.712 374.218 174.175 371.6 159.617H379.391C379.391 159.617 386.665 177.144 386.304 182.967L380.116 185.5L384.831 192.769L355.058 234.602L347.071 242.603L349.238 223.686L331.084 194.23L333.626 185.861L327.452 180.797L338.24 162.916L339.571 160.486L345.198 160.137Z" fill="#305C8F"/>
<path d="M371.6 159.617C373.211 166.594 373.764 173.685 372.667 180.764C371.283 189.068 368.172 196.982 363.536 203.986L355.83 214.796C355.83 214.796 353.222 209.567 350.477 203.078C347.15 195.235 345.328 190.629 344.289 183.891C343.549 179.704 343.322 175.442 343.613 171.2C343.613 171.2 343.671 170.467 344.39 163.576L344.862 161.379L341.735 159.617H371.6Z" fill="white"/>
<path d="M350.77 223.797L347.104 204.955L344.241 190.412C344.162 190.004 344.005 189.615 343.78 189.269C343.554 188.923 343.263 188.625 342.925 188.393C342.587 188.162 342.207 188.001 341.807 187.919C341.408 187.838 340.997 187.837 340.598 187.918L326.488 190.763C325.682 190.928 324.972 191.414 324.515 192.112C324.057 192.812 323.89 193.666 324.048 194.491L326.911 209.115L329.145 220.741L330.533 227.885C330.696 228.708 331.171 229.434 331.855 229.901C332.538 230.368 333.376 230.539 334.183 230.377L342.537 228.689L348.328 227.511C349.132 227.346 349.839 226.862 350.296 226.167C350.753 225.471 350.923 224.62 350.77 223.797Z" fill="#1B1B25"/>
<path d="M427.467 241.38L420.509 213.058L391.681 216.707L393.289 223.9L393.144 223.863L361.277 215.905V215.948C359.652 215.082 358.277 213.808 357.286 212.247C356.475 211.061 355.411 210.075 354.17 209.36C352.931 208.644 351.548 208.218 350.123 208.114C349.262 207.194 348.45 206.222 347.653 205.237L348.378 209.034L348.189 209.128C346.166 210.214 343.877 210.695 341.592 210.516L327.57 209.414C327.142 209.381 326.714 209.479 326.339 209.692C325.966 209.904 325.663 210.225 325.469 210.611C321.37 219.307 338.992 227.266 343.011 228.953L343.149 229.011L343.315 229.076L343.467 229.142L343.598 229.193L343.721 229.238H343.764H343.822L350.725 231.844L405.29 258.947C405.797 259.188 406.312 259.4 406.826 259.59C409.564 260.861 412.643 261.182 415.581 260.503C419.673 259.555 423.223 257.007 425.451 253.422C427.68 249.836 428.405 245.504 427.467 241.38Z" fill="#FFD5CA"/>
<path opacity="0.17" d="M425.27 232.175L390.644 216.533C391.798 221.491 391.128 219.306 392.132 223.727L394.483 224.306C404.475 224.967 425.27 232.175 425.27 232.175Z" fill="#FF887C"/>
<path opacity="0.35" d="M392.145 223.486C392.053 223.479 391.966 223.437 391.901 223.369C391.836 223.3 391.796 223.209 391.79 223.112L386.333 197.133C386.304 197.023 386.312 196.906 386.357 196.802C386.402 196.698 386.48 196.613 386.577 196.563C386.759 196.497 386.954 196.65 387.01 196.907L392.376 222.461C392.312 222.791 392.257 223.12 392.194 223.456L392.145 223.486Z" fill="#1B1B25"/>
<path opacity="0.35" d="M391.503 222.427C391.459 222.502 391.388 222.56 391.303 222.591C391.217 222.622 391.122 222.625 391.035 222.597L365.93 217.204C365.823 217.188 365.725 217.136 365.654 217.059C365.582 216.982 365.542 216.885 365.54 216.784C365.54 216.6 365.781 216.494 366.022 216.547L390.724 221.855L391.51 222.388C391.51 222.388 391.503 222.414 391.503 222.427Z" fill="#1B1B25"/>
<path d="M390.211 212.624C390.729 214.949 391.858 220.732 392.376 223.051L361.026 215.718L349.423 233.888L348.228 235.756L352.601 237.536L407.325 259.951C407.325 259.951 416.909 263.796 423.884 255.59C430.86 247.385 428.257 241.498 428.257 241.498L420.942 213.058L390.211 212.624Z" fill="#4E7EB7"/>
<path d="M357.75 183.513C354.443 187.69 351.549 193.245 348.228 197.416C344.332 188.292 343.546 180.74 343.466 177.43C343.229 176.361 343.164 173.365 343.466 170.913C343.611 166.736 344.064 165.129 344.332 162.658L341.735 159.617H349.093L357.75 183.513Z" fill="#D3D8EA"/>
<path d="M358.615 183.713L368.137 196.113C370.632 191.805 372.657 185.811 373.353 180.964C373.739 177.769 373.822 174.548 373.598 171.339C373.454 167.989 373.08 164.65 372.478 161.344L376.794 159.617H368.137L358.615 183.713Z" fill="#D3D8EA"/>
<path d="M351.69 192.202L355.644 199.21L350.824 203.934C351.317 205.54 352.304 208.038 353.075 208.882L353.123 208.933C353.626 209.472 354.202 209.926 354.833 210.277C355.34 210.563 356.519 211.274 357.749 213.058L363.376 204.368L358.334 199.268L363.809 190.382L358.752 183.682C358.453 183.577 358.142 183.52 357.827 183.513H357.745C357.178 183.52 352.724 190.64 351.69 192.202Z" fill="#1D3F66"/>
<path d="M358.704 213.926L347.362 232.322L349.84 233.912L361.212 215.169L358.704 213.926Z" fill="white"/>
<path opacity="0.34" d="M408.561 259.901L408.822 262.589L352.556 237.389L408.561 259.901Z" fill="#17014C"/>
<path d="M182.303 91.4299C182.996 92.125 183.639 92.8902 184.225 93.717C184.817 94.5308 185.358 95.3975 185.844 96.3092C186.34 97.2158 186.774 98.1691 187.142 99.1606C187.515 100.148 187.824 101.167 188.067 102.21C188.08 102.258 188.085 102.308 188.081 102.358C188.077 102.408 188.066 102.456 188.046 102.5C188.027 102.544 188 102.583 187.969 102.615C187.937 102.646 187.899 102.67 187.859 102.684C187.78 102.712 187.693 102.702 187.619 102.655C187.545 102.608 187.489 102.528 187.463 102.432C187.244 101.415 186.964 100.418 186.624 99.4509C186.287 98.4776 185.884 97.539 185.422 96.6446C184.966 95.745 184.456 94.8862 183.897 94.0758C183.345 93.2516 182.736 92.4864 182.076 91.7878C182.042 91.7471 182.022 91.6908 182.022 91.6318C182.022 91.5729 182.042 91.5174 182.076 91.4758C182.105 91.4386 182.142 91.4143 182.184 91.4065C182.224 91.3978 182.266 91.4065 182.303 91.4299Z" fill="#FB8E77"/>
<path d="M226.986 172.034L198.272 118.168L194.881 110.081C194.881 110.081 182.932 82.0791 173.284 90.311L173.327 90.5138C173.018 90.1238 172.626 89.8092 172.18 89.5925C171.858 89.4305 171.503 89.3421 171.143 89.3343C170.781 89.3273 170.424 89.4001 170.095 89.5492C168.776 90.1732 168.296 91.9793 169.026 93.5671L177.284 111.409C176.578 110.652 175.796 109.974 174.947 109.385C174.059 108.603 173.067 107.949 172.001 107.442C170.159 106.608 167.952 106.869 166.747 108.668C166.63 108.813 166.544 108.982 166.493 109.163C166.443 109.344 166.429 109.533 166.453 109.719C166.557 110.04 166.755 110.321 167.02 110.524C169.349 112.7 171.923 114.622 174.187 116.856C174.421 118.447 174.965 119.975 175.786 121.352C176.608 122.73 177.692 123.927 178.976 124.877C180.72 126.065 182.152 127.666 183.148 129.541L183.104 129.577L193.276 166.134H178.56L178.316 195.679H211.912C214.661 195.682 217.361 194.949 219.739 193.554C219.847 193.502 219.962 193.459 220.069 193.401C221.933 192.483 223.595 191.196 224.957 189.615C226.32 188.035 227.355 186.193 227.999 184.2C228.645 182.207 228.888 180.103 228.714 178.013C228.539 175.923 227.952 173.891 226.986 172.034Z" fill="#FEC29E"/>
<path opacity="0.17" d="M202.798 195.679C202.798 195.679 194.599 174.451 193.276 166.134C188.202 166.134 187.963 166.134 182.888 166.134L202.798 195.679Z" fill="#FF887C"/>
<path d="M186.833 113.127C186.771 113.128 186.71 113.115 186.655 113.09C186.599 113.066 186.551 113.03 186.514 112.986C183.007 108.668 178.473 110.866 178.278 110.993C178.187 111.039 178.08 111.05 177.98 111.024C177.88 110.998 177.795 110.938 177.744 110.855C177.694 110.773 177.681 110.675 177.71 110.585C177.738 110.494 177.805 110.417 177.896 110.371C179.464 109.639 181.275 109.457 182.983 109.862C184.689 110.266 186.171 111.228 187.145 112.562C187.203 112.638 187.228 112.733 187.212 112.824C187.196 112.917 187.141 113 187.059 113.057C186.995 113.103 186.915 113.128 186.833 113.127Z" fill="#FB8E77"/>
<path d="M173.826 90.5909C174.847 91.5079 175.805 92.4794 176.694 93.4995C177.587 94.5178 178.411 95.5829 179.162 96.6879C179.904 97.8085 180.541 98.9811 181.068 100.195C181.578 101.429 181.899 102.717 182.022 104.027C182.026 104.077 182.019 104.127 182.002 104.174C181.984 104.222 181.957 104.266 181.921 104.304C181.847 104.38 181.743 104.428 181.63 104.436C181.517 104.445 181.405 104.413 181.319 104.347C181.233 104.282 181.179 104.188 181.171 104.088C181.069 102.846 180.782 101.62 180.319 100.445C179.838 99.2593 179.246 98.1119 178.549 97.0138C177.119 94.8237 175.405 92.7897 173.442 90.9549C173.419 90.9341 173.399 90.9099 173.386 90.8821C173.373 90.8553 173.366 90.8258 173.366 90.7955C173.366 90.766 173.373 90.7365 173.386 90.7097C173.399 90.6819 173.419 90.6577 173.442 90.6369C173.463 90.6091 173.489 90.5866 173.52 90.5693C173.552 90.5519 173.586 90.5407 173.623 90.5363C173.659 90.532 173.696 90.5346 173.731 90.5441C173.766 90.5537 173.799 90.5693 173.826 90.5909Z" fill="#FB8E77"/>
<path d="M176.303 89.6835C177.485 90.3145 178.521 91.1629 179.351 92.1787C180.195 93.1493 180.937 94.1954 181.568 95.3013C182.206 96.4002 182.779 97.5329 183.281 98.6943L183.984 100.445L184.601 102.225C184.616 102.27 184.623 102.318 184.619 102.365C184.616 102.412 184.602 102.459 184.579 102.501C184.557 102.543 184.525 102.581 184.487 102.612C184.449 102.643 184.406 102.666 184.358 102.682C184.311 102.697 184.26 102.702 184.21 102.698C184.16 102.695 184.111 102.683 184.066 102.661C184.021 102.639 183.981 102.61 183.949 102.574C183.916 102.538 183.891 102.496 183.875 102.451L183.297 100.686L182.64 98.9491C182.169 97.8059 181.63 96.6871 181.027 95.6003C180.434 94.5126 179.73 93.4813 178.927 92.521C178.167 91.5547 177.215 90.7374 176.125 90.1134H176.086C176.031 90.0848 175.991 90.0363 175.973 89.9782C175.956 89.921 175.963 89.8595 175.993 89.8075C176.004 89.7797 176.022 89.7537 176.043 89.7329C176.065 89.7113 176.091 89.6939 176.12 89.6827C176.148 89.6714 176.179 89.6653 176.211 89.6653C176.243 89.6653 176.273 89.6714 176.303 89.6835Z" fill="#FB8E77"/>
<path opacity="0.18" d="M181.157 126.603C178.56 125.306 192.41 125.292 192.41 125.292L185.486 138.327C185.251 138.423 183.754 127.899 181.157 126.603Z" fill="#FF887C"/>
<path opacity="0.17" d="M66.8925 238.258C66.5463 238.614 66.2865 238.892 66.0269 239.126L66.8925 238.258Z" fill="#FF887C"/>
<path d="M137.418 166.28H136.896H101.45C97.7983 166.277 94.2337 167.389 91.2264 169.467C88.2199 171.545 85.9136 174.493 84.6143 177.917L84.5636 178.07V178.142L69.4893 219.392L83.4838 221.108V266.933H159.631L165.32 195.651L178.56 195.679V166.134L137.418 166.28Z" fill="white"/>
<path opacity="0.05" d="M178.56 166.134L139.215 166.308C146.28 166.622 152.955 169.771 157.848 175.099C162.74 180.426 165.472 187.52 165.473 194.899L165.417 195.679H178.56V166.134Z" fill="#1B1B25"/>
<path opacity="0.35" d="M100.388 222.616H100.345L94.0428 221.857C93.9483 221.847 93.8625 221.799 93.8036 221.726C93.7447 221.653 93.7178 221.56 93.7291 221.468C93.7412 221.375 93.7889 221.291 93.8643 221.234C93.9388 221.176 94.0341 221.15 94.1286 221.161L100.089 221.857L103.404 201.182C103.421 201.091 103.474 201.01 103.551 200.957C103.628 200.904 103.723 200.882 103.817 200.897C103.863 200.903 103.907 200.919 103.947 200.943C103.987 200.966 104.022 200.997 104.049 201.035C104.076 201.072 104.095 201.113 104.106 201.158C104.116 201.203 104.118 201.249 104.109 201.294L100.737 222.296C100.732 222.383 100.693 222.465 100.628 222.524C100.563 222.583 100.477 222.616 100.388 222.616Z" fill="#1B1B25"/>
<path d="M164.782 197.733L150.654 194.867C149.847 194.708 149.011 194.88 148.328 195.348C147.646 195.814 147.171 196.537 147.007 197.36L144.19 211.899L140.528 230.752C140.373 231.576 140.541 232.43 140.998 233.128C141.455 233.827 142.162 234.312 142.967 234.48L148.751 235.649L157.096 237.331C157.903 237.49 158.737 237.318 159.42 236.851C160.103 236.384 160.578 235.661 160.743 234.838L162.129 227.696L164.382 216.132L167.242 201.512C167.326 201.099 167.329 200.672 167.25 200.257C167.172 199.843 167.014 199.449 166.785 199.097C166.556 198.745 166.262 198.443 165.917 198.209C165.573 197.975 165.188 197.813 164.782 197.733Z" fill="#1B1B25"/>
<path d="M166.683 216.566C166.506 216.196 166.227 215.887 165.879 215.673C165.821 215.585 165.77 215.491 165.705 215.402L165.364 215.446C165.111 215.369 164.846 215.34 164.582 215.359L150.556 216.463C148.271 216.645 145.981 216.165 143.956 215.081L143.615 214.898L144.34 211.32C143.615 212.256 142.811 213.185 142 214.063C140.197 214.218 138.472 214.874 137.016 215.959C136.106 216.605 135.322 217.416 134.704 218.351C134 219.428 133.123 220.379 132.11 221.168C131.728 221.442 131.326 221.686 130.908 221.9V221.863L99.0305 229.838L98.8857 229.875L100.501 222.616L71.1523 219.024L64.6971 247.413C64.2314 249.46 64.1695 251.579 64.5148 253.651C64.8603 255.721 65.6063 257.704 66.7103 259.483C67.8143 261.264 69.2546 262.807 70.9491 264.025C72.6435 265.242 74.5589 266.112 76.586 266.582C79.5253 267.267 82.6065 266.945 85.3449 265.667C85.8686 265.483 86.3814 265.268 86.8807 265.023L140.877 238.179L148.202 235.414L149.013 235.076H148.905C152.172 233.694 170.936 225.521 166.683 216.566Z" fill="#FEC29E"/>
<path opacity="0.17" d="M98.9207 229.905C99.5638 226.831 99.38 227.094 100.334 222.688L67.4395 238.33C67.4395 238.33 70.6971 237.312 75.2126 236.083C75.6295 235.921 76.0535 235.775 76.4916 235.651L98.9207 229.905Z" fill="#FF887C"/>
<path opacity="0.08" d="M111.04 227.83L125.332 227.399C127.997 227.813 132.246 224.93 131.78 221.747L111.04 227.83Z" fill="#FF887C"/>
<path d="M99.4676 100.07C99.738 98.2254 100.463 96.4756 101.576 94.9737C102.691 93.4709 104.161 92.2619 105.858 91.4533C107.554 90.6438 109.426 90.259 111.308 90.3327C113.19 90.4063 115.026 90.9359 116.653 91.8745C117.441 90.5883 118.514 89.4946 119.789 88.6747C121.065 87.8549 122.511 87.3297 124.02 87.139C125.529 86.9483 127.062 87.0965 128.505 87.5723C129.949 88.049 131.265 88.8403 132.356 89.8889C135.259 88.4425 138.598 88.0932 141.744 88.9061C144.89 89.7191 147.627 91.6387 149.445 94.3055C151.262 96.9722 152.034 100.203 151.614 103.392C151.195 106.581 149.614 109.509 147.168 111.628L149.883 125.981C150.07 126.961 150.058 127.968 149.85 128.944C149.643 129.919 149.243 130.845 148.673 131.667C148.104 132.49 147.376 133.194 146.532 133.738C145.687 134.282 144.742 134.657 143.752 134.84L111.557 140.804C110.566 140.988 109.549 140.976 108.562 140.771C107.575 140.566 106.639 140.17 105.807 139.607C104.976 139.044 104.265 138.324 103.714 137.489C103.163 136.653 102.785 135.719 102.6 134.739L97.3217 106.87C97.0894 105.649 97.164 104.391 97.5384 103.205C97.9128 102.02 98.5749 100.943 99.4676 100.07Z" fill="#1B1B25"/>
<path d="M146.594 107.913C146.658 107.912 146.722 107.897 146.779 107.866C146.835 107.837 146.883 107.793 146.918 107.741C153.002 98.3935 144.602 92.3962 144.532 92.3433C144.492 92.3147 144.447 92.2939 144.397 92.2826C144.349 92.2705 144.298 92.2688 144.248 92.2766C144.199 92.2844 144.151 92.3017 144.109 92.3268C144.066 92.3528 144.029 92.3866 144 92.4265C143.945 92.508 143.923 92.6068 143.94 92.703C143.958 92.7992 144.012 92.885 144.092 92.943C144.417 93.1684 151.968 98.5954 146.27 107.344C146.217 107.427 146.2 107.526 146.221 107.621C146.243 107.716 146.302 107.799 146.385 107.853C146.449 107.89 146.52 107.911 146.594 107.913Z" fill="#FCF0E3"/>
<path d="M105.177 126.457L105.9 126.341L112.935 113.012C114.616 112.805 116.236 112.252 117.695 111.389C119.157 112.759 121.033 113.601 123.025 113.781C125.442 114.039 127.866 113.343 129.779 111.838C131.878 113.435 134.379 114.414 137.002 114.665C140.023 114.988 143.07 114.359 145.72 112.868L150.617 135.938C150.937 137.465 150.94 139.043 150.629 140.572C150.317 142.101 149.696 143.551 148.804 144.83C147.815 146.844 146.367 148.595 144.577 149.942C142.788 151.29 140.708 152.195 138.505 152.585V167.806C138.505 173.104 133.592 177.43 127.59 177.43H124.145C118.142 177.43 113.231 173.082 113.231 167.806V150.484C111.438 148.788 110.195 146.591 109.663 144.178L108.767 139.967L108.045 140.083C103.913 140.764 99.8973 138.336 99.1242 134.69L99.0445 134.321C98.294 130.675 101.039 127.138 105.177 126.457Z" fill="#FEC29E"/>
<path opacity="0.32" d="M110.052 138.327L110.691 141.666C111.397 145.362 113.564 148.63 116.716 150.752C119.869 152.875 123.748 153.678 127.501 152.985L138.556 150.947C140.564 150.577 142.467 149.79 144.14 148.639C145.814 147.488 147.219 145.998 148.262 144.27C147.35 146.507 145.878 148.483 143.984 150.012C142.091 151.542 139.837 152.577 137.429 153.02L136.983 153.105C136.1 154.921 134.715 156.454 132.987 157.53C131.259 158.604 129.258 159.177 127.214 159.182H123.744C121.297 159.173 118.925 158.353 117.009 156.855C115.092 155.355 113.746 153.265 113.184 150.92C111.196 148.899 109.857 146.348 109.333 143.583L108.442 138.907L110.052 138.327Z" fill="#FF887C"/>
<path d="M103.439 137.458C103.521 137.457 103.601 137.429 103.665 137.379L106.568 135.229C106.609 135.196 106.643 135.156 106.668 135.11C106.692 135.065 106.707 135.015 106.711 134.964C106.715 134.913 106.705 134.862 106.684 134.814C106.663 134.768 106.631 134.725 106.591 134.691L103.016 131.481C102.982 131.447 102.941 131.42 102.895 131.403C102.85 131.385 102.802 131.375 102.752 131.375C102.704 131.375 102.654 131.385 102.609 131.403C102.564 131.42 102.522 131.447 102.489 131.481C102.421 131.549 102.384 131.638 102.384 131.732C102.384 131.825 102.421 131.914 102.489 131.982L105.753 134.906L103.198 136.791C103.137 136.837 103.093 136.9 103.071 136.971C103.049 137.041 103.051 137.116 103.075 137.186C103.101 137.255 103.147 137.316 103.209 137.36C103.271 137.403 103.347 137.427 103.424 137.429L103.439 137.458Z" fill="#FB8E77"/>
<path d="M122.27 125.292C122.882 125.202 123.468 125.004 123.992 124.71C124.568 124.435 125.152 124.173 125.675 123.959C126.198 123.744 126.797 123.517 127.411 123.289C128.003 123.129 128.548 122.86 129.011 122.499C129.375 122.144 129.299 121.594 128.465 121.226C127.793 121.007 127.076 120.916 126.361 120.958C125.647 121.001 124.95 121.176 124.317 121.474C123.658 121.705 123.062 122.059 122.571 122.512C122.081 122.965 121.706 123.507 121.474 124.1C121.277 124.91 121.732 125.305 122.27 125.292Z" fill="#1B1B25"/>
<path d="M144.324 121.681C143.763 121.838 143.183 121.859 142.615 121.743C142.009 121.681 141.398 121.627 140.87 121.609C140.342 121.591 139.723 121.609 139.118 121.609C138.547 121.671 137.972 121.599 137.422 121.394C136.972 121.161 136.803 120.499 137.366 119.783C138.388 118.722 139.697 118.214 141.011 118.368C141.658 118.341 142.302 118.479 142.906 118.774C143.51 119.069 144.063 119.516 144.529 120.087C145.014 120.866 144.789 121.483 144.324 121.681Z" fill="#1B1B25"/>
<path d="M127.087 128.681L127.038 128.69C126.559 128.781 126.244 129.243 126.333 129.724L126.546 130.864C126.635 131.344 127.097 131.661 127.575 131.57L127.625 131.562C128.104 131.472 128.419 131.009 128.329 130.529L128.117 129.388C128.026 128.907 127.566 128.591 127.087 128.681Z" fill="#1B1B25"/>
<path d="M142.487 126.168L142.438 126.177C141.958 126.267 141.643 126.73 141.733 127.21L141.946 128.351C142.036 128.831 142.497 129.148 142.975 129.058L143.024 129.048C143.504 128.958 143.818 128.496 143.729 128.015L143.516 126.875C143.427 126.395 142.966 126.078 142.487 126.168Z" fill="#1B1B25"/>
<path opacity="0.17" d="M123.58 133.773L126.74 133.416C127.03 133.383 127.32 133.468 127.548 133.65C127.775 133.832 127.922 134.098 127.955 134.388L127.961 134.446C127.994 134.735 127.911 135.024 127.73 135.251C127.549 135.478 127.287 135.625 126.999 135.657L123.838 136.014C123.695 136.029 123.55 136.017 123.412 135.977C123.273 135.938 123.143 135.87 123.03 135.78C122.918 135.69 122.824 135.578 122.754 135.451C122.685 135.325 122.64 135.185 122.624 135.041L122.618 134.983C122.585 134.695 122.668 134.405 122.849 134.178C123.03 133.951 123.292 133.806 123.58 133.773Z" fill="#FF887C"/>
<path opacity="0.17" d="M144.432 130.474L147.593 130.117C147.88 130.084 148.169 130.168 148.395 130.349C148.621 130.53 148.766 130.794 148.799 131.083L148.805 131.141C148.838 131.431 148.754 131.723 148.572 131.952C148.391 132.18 148.126 132.327 147.836 132.359L144.676 132.716C144.389 132.749 144.1 132.665 143.874 132.484C143.648 132.303 143.502 132.039 143.47 131.751L143.462 131.686C143.447 131.542 143.459 131.397 143.499 131.258C143.539 131.119 143.606 130.99 143.696 130.877C143.786 130.764 143.897 130.671 144.024 130.601C144.15 130.532 144.289 130.489 144.432 130.474Z" fill="#FF887C"/>
<path d="M134.752 134.836H134.835L137.158 134.218C137.641 134.09 138.089 133.851 138.467 133.519C138.845 133.187 139.144 132.771 139.341 132.302C139.538 131.834 139.627 131.325 139.602 130.816C139.577 130.308 139.437 129.811 139.195 129.366L135.656 122.857C135.615 122.781 135.547 122.723 135.465 122.699C135.384 122.675 135.296 122.684 135.222 122.725C135.147 122.767 135.092 122.837 135.067 122.92C135.043 123.003 135.053 123.094 135.093 123.17L138.632 129.685C138.826 130.043 138.938 130.442 138.959 130.851C138.979 131.259 138.908 131.667 138.75 132.044C138.592 132.421 138.352 132.755 138.049 133.022C137.745 133.29 137.386 133.482 136.998 133.585L134.669 134.204C134.589 134.221 134.519 134.267 134.472 134.334C134.424 134.402 134.404 134.485 134.415 134.567C134.425 134.649 134.466 134.724 134.528 134.777C134.592 134.829 134.671 134.856 134.752 134.851V134.836Z" fill="#FB8E77"/>
<path d="M105.846 126.624L107.296 123.555L110.828 140.052C110.828 140.052 113.453 143.173 116.789 141.057C120.125 138.941 132.648 135.726 138.601 135.625C144.554 135.523 147.303 136.029 148.094 134.722C148.77 133.404 149.311 132.023 149.71 130.597C149.71 130.597 151.327 137.098 150.726 140.154C150.123 143.209 149.384 144.278 148.231 146.344C147.078 148.41 144.359 151.928 136.687 153.567C129.015 155.207 125.773 156.687 120.125 154.874C114.476 153.062 111.64 148.944 111.031 147.131C110.422 145.318 105.846 126.624 105.846 126.624Z" fill="#1B1B25"/>
<path d="M130.084 141.27L138.74 140.065L137.793 142.995C137.496 143.913 136.905 144.716 136.106 145.284C135.307 145.85 134.342 146.154 133.354 146.148C132.596 146.147 131.865 145.873 131.302 145.379C130.737 144.885 130.38 144.206 130.298 143.471L130.084 141.27Z" fill="white"/>
<path d="M288.498 165.265L287.632 170.479C287.943 168.684 288.242 166.91 288.498 165.265Z" fill="#4E7EB7"/>
<path opacity="0.34" d="M290.135 160.051L288.45 165.678C288.017 167.232 287.512 168.906 286.985 170.602L284.948 177.382C284.676 178.235 284.325 179.064 283.901 179.858C282.15 184.879 280.707 188.727 280.707 188.727L301.482 160.17C296.325 160.17 295.138 160.051 290.135 160.051Z" fill="#17014C" fill-opacity="0.2"/>
<path d="M45.251 266.064H433.927" stroke="#C0D3AE" stroke-width="4" stroke-miterlimit="10" stroke-linecap="round"/>
<path d="M503.064 125.676C502.516 125.485 501.924 125.473 501.376 125.281C501.21 125.224 500.881 125.154 500.812 124.963C500.747 124.776 500.747 124.556 500.735 124.361C500.727 124.205 500.723 124.05 500.723 123.896C500.723 123.794 500.983 123.578 501.039 123.484C501.258 123.118 501.278 122.625 501.319 122.21C501.673 122.307 501.717 121.651 501.778 121.452C501.823 121.313 502.094 120.36 501.673 120.491C501.774 120.312 501.814 120.091 501.843 119.892C501.924 119.37 501.956 118.8 501.798 118.291C501.469 117.232 500.459 116.638 499.392 116.605C498.308 116.568 497.221 117.089 496.815 118.145C496.62 118.658 496.636 119.216 496.701 119.753C496.73 119.998 496.771 120.271 496.892 120.491C496.499 120.372 496.709 121.212 496.754 121.358C496.819 121.566 496.876 122.312 497.246 122.21C497.278 122.54 497.314 122.878 497.403 123.199C497.464 123.415 497.59 123.599 497.736 123.765C497.809 123.847 497.845 123.855 497.842 123.961C497.838 124.279 497.845 124.621 497.765 124.931C497.683 125.24 497.006 125.37 496.734 125.427C496.004 125.578 495.33 125.648 494.721 126.103C494.011 126.629 493.642 127.448 493.642 128.332H504.923C504.923 127.13 504.2 126.071 503.064 125.676Z" fill="black"/>
<path d="M494.709 125.174C494.571 125.244 494.405 125.329 494.742 125.158L494.774 125.141C495.051 125.011 495.347 124.979 495.642 124.95C495.756 124.938 495.809 124.861 495.724 124.751C495.562 124.543 495.002 124.502 494.766 124.408C494.62 124.351 494.58 124.298 494.568 124.135C494.564 124.062 494.523 123.737 494.58 123.684C494.62 123.643 494.875 123.659 494.933 123.651C495.164 123.622 495.399 123.574 495.618 123.488C495.712 123.451 495.801 123.406 495.883 123.349C495.98 123.276 495.809 123.097 495.765 122.999C495.627 122.694 495.565 122.359 495.545 122.026C495.505 121.37 495.606 120.71 495.485 120.058C495.302 119.06 494.535 118.559 493.557 118.559C492.952 118.559 492.356 118.767 492.019 119.297C491.646 119.879 491.666 120.604 491.686 121.268C491.698 121.647 491.715 122.03 491.662 122.409C491.638 122.572 491.601 122.73 491.545 122.886C491.5 123.003 491.273 123.296 491.362 123.358C491.698 123.598 492.267 123.679 492.672 123.646C492.685 123.847 492.721 124.103 492.648 124.29C492.535 124.583 491.686 124.661 491.43 124.746C490.721 124.983 490.193 125.561 490.193 126.376H493.419C493.471 126.376 493.675 125.997 493.731 125.936C494.007 125.63 494.344 125.366 494.709 125.174ZM507.126 124.743C506.797 124.636 506.165 124.604 505.929 124.319C505.811 124.176 505.876 123.814 505.888 123.643C506.067 123.659 506.262 123.631 506.445 123.606C506.611 123.581 506.773 123.549 506.932 123.492C507.004 123.464 507.077 123.435 507.147 123.394C507.304 123.301 507.232 123.284 507.15 123.146C506.708 122.4 506.907 121.456 506.887 120.637C506.87 119.956 506.692 119.211 506.075 118.828C505.519 118.482 504.696 118.47 504.099 118.714C502.378 119.407 503.393 121.696 502.805 123.007C502.703 123.227 502.557 123.305 502.812 123.435C502.955 123.509 503.109 123.557 503.263 123.594C503.499 123.651 503.742 123.684 503.986 123.692C504.026 123.692 503.998 124.205 503.986 124.257C503.941 124.458 503.507 124.514 503.345 124.559C503.178 124.604 502.902 124.616 502.821 124.791C502.699 125.052 503.222 124.987 503.352 125.011C503.77 125.089 504.139 125.321 504.464 125.586C504.708 125.785 505.036 126.054 505.126 126.38H508.38C508.372 125.561 507.84 124.979 507.126 124.743Z" fill="black"/>
<path d="M507.826 130.062C507.539 130.064 507.263 129.951 507.06 129.75L504.335 127.016C504.143 126.81 504.038 126.537 504.044 126.255C504.049 125.973 504.162 125.704 504.361 125.505C504.559 125.305 504.828 125.191 505.109 125.186C505.39 125.181 505.661 125.285 505.867 125.478L507.826 127.436L513.08 122.163C513.179 122.056 513.299 121.97 513.431 121.911C513.565 121.852 513.708 121.82 513.853 121.817C513.999 121.814 514.144 121.841 514.279 121.896C514.414 121.95 514.536 122.032 514.64 122.135C514.743 122.239 514.823 122.362 514.878 122.497C514.932 122.632 514.959 122.778 514.957 122.924C514.954 123.07 514.922 123.214 514.863 123.347C514.804 123.481 514.718 123.601 514.612 123.701L508.606 129.75C508.503 129.852 508.381 129.932 508.247 129.985C508.113 130.039 507.97 130.065 507.826 130.062Z" fill="white"/>
</g>
<defs>
<clipPath id="clip0_144_105">
<rect width="520" height="267.8" fill="white"/>
</clipPath>
</defs>
</svg>
