<svg width="30" height="30" viewBox="0 0 30 30" fill="none" xmlns="http://www.w3.org/2000/svg">
<path d="M14.8601 1.07606e-06H14.8531C12.1157 -0.00104097 9.43123 0.754762 7.09643 2.18389C4.76163 3.61301 2.86739 5.65982 1.62305 8.09812C0.378703 10.5364 -0.167304 13.2713 0.0453676 16.0005C0.258039 18.7296 1.22111 21.3469 2.82815 23.563L0.977146 29.082L6.68715 27.257C8.62049 28.5305 10.8247 29.3343 13.124 29.6045C15.4232 29.8747 17.7538 29.6037 19.9297 28.8131C22.1056 28.0225 24.0665 26.7342 25.656 25.0511C27.2456 23.3679 28.4196 21.3365 29.0845 19.119C29.7495 16.9015 29.8868 14.5593 29.4857 12.2792C29.0845 9.99918 28.1559 7.84448 26.774 5.98709C25.3922 4.1297 23.5952 2.62104 21.5267 1.58153C19.4581 0.54202 17.1752 0.000435414 14.8601 1.07606e-06V1.07606e-06ZM23.5001 20.978C23.2003 21.5222 22.7832 21.9929 22.279 22.3561C21.7749 22.7193 21.1963 22.9659 20.5851 23.078C19.8091 23.243 18.7951 23.378 15.3851 21.96C11.0191 20.151 8.20815 15.715 7.98515 15.427C6.97672 14.135 6.36404 12.5787 6.22115 10.946C6.20205 10.2692 6.32809 9.5961 6.59078 8.97205C6.85348 8.34799 7.24675 7.78741 7.74415 7.328C8.16278 6.96106 8.70702 6.77009 9.26315 6.795C9.44715 6.795 9.61215 6.804 9.76315 6.812C10.1991 6.831 10.4191 6.857 10.7061 7.546C11.0641 8.41 11.9371 10.546 12.0411 10.76C12.114 10.8789 12.1577 11.0134 12.1687 11.1524C12.1796 11.2915 12.1575 11.4311 12.1041 11.56C11.9821 11.8121 11.8196 12.0424 11.6231 12.242C11.4041 12.495 11.1961 12.688 10.9771 12.959C10.7771 13.195 10.5501 13.447 10.8021 13.884C11.4545 14.9965 12.2664 16.0072 13.2121 16.884C14.2277 17.8135 15.4098 18.5426 16.6961 19.033C16.867 19.1141 17.0583 19.1418 17.2452 19.1124C17.432 19.0829 17.6055 18.9977 17.7431 18.868C18.1561 18.3757 18.5423 17.8616 18.9001 17.328C19.0052 17.15 19.173 17.0177 19.3706 16.9571C19.5682 16.8964 19.7813 16.9117 19.9681 17C20.3681 17.139 22.4921 18.188 22.9281 18.406C23.3641 18.624 23.6521 18.729 23.7581 18.913C23.8715 19.6118 23.7819 20.3285 23.5001 20.978V20.978Z" fill="#07AC4A"/>
</svg>
